<svg width="24" height="24" viewBox="0 0 24 24" fill="none" xmlns="http://www.w3.org/2000/svg">
<path d="M18.677 19.5L13.5307 14.3538C13.4414 14.2634 13.3947 14.1505 13.3907 14.015C13.3866 13.8793 13.4313 13.7564 13.525 13.6463C13.6186 13.5359 13.7334 13.4808 13.8692 13.4808C14.0051 13.4808 14.1281 13.5359 14.2385 13.6463L19.3845 18.7923V14C19.3845 13.8583 19.4325 13.7396 19.5285 13.6438C19.6245 13.5479 19.7434 13.5 19.8852 13.5C20.0271 13.5 20.1457 13.5479 20.2412 13.6438C20.3367 13.7396 20.3845 13.8583 20.3845 14V19.6923C20.3845 19.9211 20.3071 20.1129 20.1525 20.2678C19.9976 20.4226 19.8058 20.5 19.577 20.5H13.8845C13.7428 20.5 13.6241 20.452 13.5282 20.356C13.4324 20.26 13.3845 20.1411 13.3845 19.9993C13.3845 19.8574 13.4324 19.7388 13.5282 19.6432C13.6241 19.5478 13.7428 19.5 13.8845 19.5H18.677ZM6.61548 15.5H4.11548C3.97381 15.5 3.85506 15.452 3.75923 15.356C3.6634 15.26 3.61548 15.1411 3.61548 14.9993C3.61548 14.8574 3.6634 14.7388 3.75923 14.6433C3.85506 14.5478 3.97381 14.5 4.11548 14.5H8.99998C9.17948 14.5 9.3269 14.4423 9.44223 14.327C9.55773 14.2115 9.61548 14.064 9.61548 13.8845V11.1155C9.61548 10.936 9.55773 10.7885 9.44223 10.673C9.3269 10.5577 9.17948 10.5 8.99998 10.5H5.23073C4.78656 10.5 4.40631 10.3418 4.08998 10.0255C3.77365 9.70917 3.61548 9.32883 3.61548 8.8845V6.1155C3.61548 5.67117 3.77365 5.29083 4.08998 4.9745C4.40631 4.65817 4.78656 4.5 5.23073 4.5H6.61548V4C6.61548 3.85833 6.6634 3.73958 6.75923 3.64375C6.85523 3.54792 6.97415 3.5 7.11598 3.5C7.25781 3.5 7.37648 3.54792 7.47198 3.64375C7.56765 3.73958 7.61548 3.85833 7.61548 4V4.5H10.1155C10.2571 4.5 10.3759 4.548 10.4717 4.644C10.5676 4.74 10.6155 4.85892 10.6155 5.00075C10.6155 5.14258 10.5676 5.26125 10.4717 5.35675C10.3759 5.45225 10.2571 5.5 10.1155 5.5H5.23073C5.05123 5.5 4.90381 5.55767 4.78848 5.673C4.67315 5.7885 4.61548 5.936 4.61548 6.1155V8.8845C4.61548 9.064 4.67315 9.2115 4.78848 9.327C4.90381 9.44233 5.05123 9.5 5.23073 9.5H8.99998C9.44415 9.5 9.8244 9.65817 10.1407 9.9745C10.4572 10.2908 10.6155 10.6712 10.6155 11.1155V13.8845C10.6155 14.3288 10.4572 14.7092 10.1407 15.0255C9.8244 15.3418 9.44415 15.5 8.99998 15.5H7.61548V16C7.61548 16.1417 7.56748 16.2604 7.47148 16.3562C7.37548 16.4521 7.25656 16.5 7.11473 16.5C6.9729 16.5 6.85423 16.4521 6.75873 16.3562C6.66323 16.2604 6.61548 16.1417 6.61548 16V15.5Z" fill="white"/>
</svg>
