<?xml version="1.0" encoding="UTF-8"?>
<svg id="Capa_2" data-name="Capa 2" xmlns="http://www.w3.org/2000/svg" viewBox="0 0 870.78 348.91">
  <g id="Capa_1-2" data-name="Capa 1">
    <g>
      <g>
        <path d="M453.49,41.81c-2.31,2.08-4.94,4.45-7.87,7.12-2.94,2.67-5.89,5.41-8.85,8.23-2.97,2.82-5.83,5.62-8.58,8.41-2.76,2.79-5.15,5.31-7.16,7.56-.24,1.07-.59,2.09-1.07,3.07-.48.98-1.07,1.82-1.78,2.54-.71.71-1.5,1.29-2.36,1.73-.86.44-1.77.67-2.71.67-.3,0-.7-.03-1.2-.09-.5-.06-.76-.33-.76-.8,0-.36.12-.64.36-.84.24-.21.52-.49.85-.85.33-.36.61-.86.84-1.51.24-.65.36-1.6.36-2.85,0-2.37-.49-4.29-1.47-5.74-.98-1.45-2.19-2.58-3.65-3.38-1.45-.8-3.02-1.32-4.71-1.56-1.69-.24-3.28-.36-4.76-.36-.77,0-1.81.18-3.11.53-1.31.36-2.71.74-4.23,1.16-1.51.41-3.05.8-4.63,1.16-1.57.36-3.04.53-4.4.53-1.07,0-2.08-.07-3.02-.22-.95-.15-1.42-.67-1.42-1.56,0-.59.21-1.07.62-1.42.42-.36,1.29-.64,2.62-.84,1.33-.21,3.23-.36,5.69-.45,2.46-.09,5.77-.13,9.92-.13,2.79,0,5.43-.99,7.92-2.98,2.49-1.99,4.94-4.67,7.34-8.05,2.4-3.38,4.8-7.28,7.21-11.7s4.91-9.06,7.52-13.92c-1.6-.41-3.23-.95-4.89-1.6-1.66-.65-3.19-1.51-4.58-2.58-1.39-1.07-2.54-2.39-3.43-3.96-.89-1.57-1.33-3.42-1.33-5.56,0-3.02.9-5.47,2.71-7.34,1.81-1.87,4.4-2.8,7.78-2.8.89,0,1.75.08,2.58.22.83.15,1.54.4,2.13.76l-.36.8c-.65-.24-1.32-.41-2-.53-.68-.12-1.44-.18-2.27-.18-1.66,0-3.1.25-4.31.76-1.22.5-2.21,1.19-2.98,2.05-.77.86-1.33,1.84-1.69,2.94-.36,1.1-.53,2.24-.53,3.42,0,1.66.37,3.19,1.11,4.58.74,1.39,1.75,2.62,3.02,3.69,1.27,1.07,2.74,1.97,4.4,2.71,1.66.74,3.41,1.29,5.25,1.65,1.6-3.2,3.66-6.26,6.18-9.16,2.52-2.91,5.35-5.48,8.5-7.74,3.14-2.25,6.52-4.05,10.14-5.38,3.62-1.33,7.32-2,11.12-2,1.25,0,2.5.12,3.78.36,1.27.24,2.43.64,3.47,1.2,1.04.56,1.9,1.33,2.58,2.31.68.98,1.02,2.21,1.02,3.69,0,2.37-.71,4.48-2.13,6.32-1.42,1.84-3.29,3.46-5.6,4.85-2.31,1.39-4.91,2.57-7.78,3.51-2.88.95-5.77,1.73-8.67,2.36-2.91.62-5.66,1.07-8.27,1.33-2.61.27-4.83.4-6.67.4-2.02,3.97-4.09,7.8-6.23,11.48-2.13,3.68-4.57,7.09-7.29,10.23-2.73,3.14-5.81,5.92-9.25,8.32-3.44,2.4-7.44,4.31-12.01,5.74v.18c1.78,0,3.83.04,6.14.13,2.31.09,4.51.44,6.58,1.07,2.08.62,3.85,1.59,5.34,2.89,1.48,1.3,2.31,3.14,2.49,5.52,2.31-2.49,4.82-5.1,7.52-7.83,2.7-2.73,5.46-5.44,8.27-8.14,2.82-2.7,5.6-5.31,8.36-7.83,2.76-2.52,5.35-4.82,7.78-6.89l.53.62ZM467.63,5.52c0-1.19-.4-2.22-1.2-3.11-.8-.89-2.18-1.33-4.14-1.33-2.67,0-5.32.84-7.96,2.54-2.64,1.69-5.15,3.77-7.52,6.23-2.37,2.46-4.51,5.09-6.4,7.87-1.9,2.79-3.47,5.31-4.72,7.56,1.72,0,3.71-.12,5.96-.36,2.25-.24,4.57-.64,6.94-1.2,2.37-.56,4.7-1.33,6.98-2.31,2.28-.98,4.31-2.19,6.09-3.65,1.78-1.45,3.22-3.19,4.32-5.2,1.1-2.02,1.65-4.36,1.65-7.03Z"/>
        <path d="M490.31,40.92c-1.84,2.49-3.81,4.95-5.92,7.38-2.11,2.43-4.61,4.98-7.52,7.65-4.09,3.68-8.02,6.21-11.79,7.61-3.77,1.39-7.31,2.09-10.63,2.09s-6.05-1.01-8.01-3.03-2.94-4.63-2.94-7.83c0-2.85.86-5.66,2.58-8.45,1.72-2.79,3.88-5.28,6.49-7.47,2.61-2.19,5.47-3.97,8.58-5.34,3.11-1.36,6.06-2.05,8.85-2.05,2.55,0,4.54.49,5.96,1.47,1.42.98,2.13,2.36,2.13,4.14,0,1.42-.49,2.73-1.47,3.91-.98,1.19-2.24,2.25-3.78,3.2-1.54.95-3.28,1.78-5.2,2.49-1.93.71-3.84,1.33-5.74,1.87-1.9.53-3.68.98-5.34,1.33-1.66.36-3.02.65-4.09.89-.3,1.19-.45,2.25-.45,3.2,0,2.55.71,4.63,2.13,6.23,1.42,1.6,3.41,2.4,5.96,2.4s5.23-.74,8.23-2.22c2.99-1.48,6-3.65,9.03-6.49,2.31-2.19,4.54-4.49,6.67-6.89,2.13-2.4,4-4.64,5.6-6.72l.62.62ZM471.01,34.87c0-.83-.22-1.42-.67-1.78-.44-.36-1.02-.53-1.73-.53-1.48,0-3.08.62-4.8,1.87-1.72,1.25-3.34,2.77-4.85,4.58-1.51,1.81-2.85,3.71-4,5.69-1.16,1.99-1.91,3.72-2.27,5.21,2.43-.47,4.74-1.26,6.94-2.36,2.19-1.1,4.14-2.34,5.83-3.74s3.04-2.88,4.05-4.45c1.01-1.57,1.51-3.07,1.51-4.49Z"/>
      </g>
      <g>
        <path d="M85.94,175.38h-2.08c-1.25-35.79-6.45-50.77-24.35-50.77h-21.22c-12.69,0-12.69,2.91-12.69,21.02v44.11h12.69c21.43,0,22.47-6.45,23.51-30.59h2.08v63.88h-2.08c-1.04-24.35-2.08-30.8-23.51-30.8h-12.69v52.02c0,18.1,0,21.22,18.52,21.43v2.08H0v-2.08c13.53-.21,13.53-3.33,13.53-21.43v-98.63c0-18.1,0-21.22-13.53-21.43v-2.08h85.31l.62,53.27Z"/>
        <path d="M183.57,232.19v17.69c0,8.12-1.04,11.45-2.5,13.94-1.04,1.87-3.95,6.03-10.2,6.03-4.99,0-7.91-2.08-9.78-4.99-1.66-2.71-2.71-7.7-2.71-14.15v-18.52c0-24.76-12.48-33.09-26.22-33.09h-18.1v45.15c0,18.1,0,21.22,17.06,21.43v2.08h-42.66v-2.08c13.53-.21,13.53-3.33,13.53-21.43v-98.63c0-18.1,0-21.22-13.53-21.43v-2.08h45.78c22.47,0,40.78,8.74,40.78,38.29,0,25.18-13.11,35.58-32.04,38.08,15.19,4.79,27.88,18.1,27.88,33.92v17.69c0,4.58.42,7.91,1.04,10.2.62,2.08,1.66,3.75,3.95,3.75,2.71,0,3.95-2.5,4.37-3.75.62-1.66,1.25-4.16,1.25-10.4v-17.69h2.08ZM134.25,196.61c21.02,0,27.05-11.24,27.05-36.21s-6.03-35.79-27.05-35.79h-7.49c-12.69,0-12.69,2.91-12.69,21.02v50.98h20.18Z"/>
        <path d="M295.66,265.69v2.08h-43.7v-2.08c17.27-1.25,16.02-7.49,10.82-24.97l-7.91-26.84h-41.62l-5.2,18.52c-7.7,27.26-8.95,32.04,10.2,33.29v2.08h-36.42v-2.08c14.15-1.25,15.81-4.99,23.72-33.29l31.63-112.37h1.87l36.42,120.69c5.41,17.27,8.95,23.72,20.18,24.97ZM254.05,211.59l-20.6-69.29-19.56,69.29h40.16Z"/>
        <path d="M282.76,194.94c0-45.78,24.76-74.91,49.32-74.91,12.28,0,19.98,6.66,25.59,13.53,3.12,3.75,4.79,5.83,6.45,5.83,2.71,0,3.54-2.91,3.95-19.35h2.08l.62,59.93h-2.08c-1.04-20.6-9.78-57.43-36.42-57.43s-35.58,36-35.58,72.41,5.83,72.21,34.75,72.21c18.1,0,27.88-18.52,27.88-35.58v-12.28c0-17.9,0-21.22-18.52-21.43v-2.08h43.7v2.08c-13.32.21-13.32,3.54-13.32,21.43v50.56h-1.66l-7.07-38.08c-1.87,20.6-12.28,38.08-31.84,38.08-26.43,0-47.86-28.72-47.86-74.91Z"/>
        <path d="M475.55,232.19v17.69c0,8.12-1.04,11.45-2.5,13.94-1.04,1.87-3.95,6.03-10.2,6.03-4.99,0-7.91-2.08-9.78-4.99-1.67-2.71-2.71-7.7-2.71-14.15v-18.52c0-24.76-12.49-33.09-26.22-33.09h-18.1v45.15c0,18.1,0,21.22,17.06,21.43v2.08h-42.66v-2.08c13.53-.21,13.53-3.33,13.53-21.43v-98.63c0-18.1,0-21.22-13.53-21.43v-2.08h45.78c22.47,0,40.78,8.74,40.78,38.29,0,25.18-13.11,35.58-32.04,38.08,15.19,4.79,27.88,18.1,27.88,33.92v17.69c0,4.58.42,7.91,1.04,10.2.62,2.08,1.66,3.75,3.95,3.75,2.71,0,3.95-2.5,4.37-3.75.62-1.66,1.25-4.16,1.25-10.4v-17.69h2.08ZM426.24,196.61c21.02,0,27.05-11.24,27.05-36.21s-6.04-35.79-27.05-35.79h-7.49c-12.69,0-12.69,2.91-12.69,21.02v50.98h20.18Z"/>
        <path d="M587.65,265.69v2.08h-43.7v-2.08c17.27-1.25,16.02-7.49,10.82-24.97l-7.91-26.84h-41.62l-5.2,18.52c-7.7,27.26-8.95,32.04,10.2,33.29v2.08h-36.41v-2.08c14.15-1.25,15.81-4.99,23.72-33.29l31.63-112.37h1.87l36.42,120.69c5.41,17.27,8.95,23.72,20.18,24.97ZM546.03,211.59l-20.6-69.29-19.56,69.29h40.16Z"/>
        <path d="M695.48,122.11v2.08c-19.14.21-19.14,11.24-19.14,31.42v112.16h-1.87l-67-134.01.21,100.5c0,20.18-.21,31.21,22.68,31.42v2.08h-44.32v-2.08c19.14-.21,19.14-11.24,19.14-31.42v-94.05c0-9.16-.83-15.81-19.56-16.02v-2.08h29.13l59.1,118.19v-84.69c0-20.18,0-31.21-22.68-31.42v-2.08h44.32Z"/>
        <path d="M690.63,194.94c0-45.78,24.76-74.91,49.32-74.91,12.28,0,19.98,6.66,25.59,13.53,3.12,3.75,4.79,5.83,6.45,5.83,2.71,0,3.54-2.91,3.95-19.35h2.08l.62,59.93h-2.08c-1.04-20.6-9.78-57.43-36.42-57.43s-35.58,36-35.58,72.41,6.03,71.79,35.79,71.79c25.8,0,35.37-29.76,36.62-54.73h2.08c-.83,24.35-10.82,57.85-40.16,57.85-26.84,0-48.28-28.72-48.28-74.91Z"/>
        <path d="M870.78,208.67l-.83,59.1h-86.98v-2.08c13.53-.21,13.53-3.33,13.53-21.43v-98.63c0-18.1,0-21.22-13.53-21.43v-2.08h85.31l.62,53.27h-2.08c-1.25-35.79-6.45-50.77-24.35-50.77h-21.22c-12.69,0-12.69,2.91-12.69,21.02v44.32h12.69c21.43,0,22.47-6.66,23.51-30.8h2.08v63.88h-2.08c-1.04-24.35-2.08-31-23.51-31h-12.69v52.23c0,18.1,0,21.02,12.69,21.02h17.9c26.84,0,28.51-21.02,29.55-56.6h2.08Z"/>
      </g>
      <g>
        <path d="M374.09,338.68l2.97,2.2c-1.39,2.6-3.27,4.59-5.61,5.97-2.35,1.38-5.02,2.06-8.03,2.06-4.44,0-8.11-1.46-11-4.37-2.9-2.92-4.35-6.63-4.35-11.14s1.45-8.23,4.35-11.17c2.9-2.93,6.56-4.4,11-4.4,2.75,0,5.25.61,7.51,1.82s4.08,2.92,5.47,5.12l-3.08,2.2c-.95-1.8-2.3-3.19-4.04-4.18-1.74-.99-3.7-1.49-5.86-1.49-3.3,0-6.05,1.14-8.25,3.41-2.2,2.27-3.3,5.17-3.3,8.69s1.1,6.41,3.3,8.67c2.2,2.26,4.95,3.38,8.25,3.38,4.73,0,8.29-2.26,10.67-6.77Z"/>
        <path d="M402.91,348.14v-29.65h3.69v26.24h19.36v3.41h-23.05Z"/>
        <path d="M450.56,318.49v19.2c0,3.08.58,5.14,1.73,6.19s3.42,1.57,6.79,1.57,5.64-.52,6.79-1.57c1.16-1.04,1.73-3.11,1.73-6.19v-19.2h3.69v20.19c0,3.63-.95,6.24-2.83,7.84-1.89,1.6-5.02,2.39-9.38,2.39s-7.49-.8-9.38-2.39c-1.89-1.6-2.83-4.21-2.83-7.84v-20.19h3.69Z"/>
        <path d="M498.75,348.14v-29.65h17.55c5.9,0,8.86,2.46,8.86,7.37,0,2.49-.9,4.31-2.7,5.45,3.19,1.83,4.79,4.47,4.79,7.92,0,2.75-.88,4.92-2.64,6.52-1.76,1.6-4.22,2.39-7.37,2.39h-18.48ZM502.43,330.21h14.19c3.19,0,4.79-1.38,4.79-4.13s-1.6-4.18-4.79-4.18h-14.19v8.31ZM502.43,344.73h15.51c1.72,0,3.06-.5,4.02-1.49.95-.99,1.43-2.35,1.43-4.07s-.48-3.04-1.43-4.04c-.95-1.01-2.29-1.51-4.02-1.51h-15.51v11.11Z"/>
      </g>
    </g>
  </g>
</svg>