<svg width="187" height="64" viewBox="0 0 187 64" fill="none" xmlns="http://www.w3.org/2000/svg">
<g clip-path="url(#clip0_24_68)">
<path d="M42.8558 29.0243H42.5539C42.3739 23.8469 41.6177 21.6798 39.0253 21.6798H35.9481C34.109 21.6798 34.109 22.0999 34.109 24.7204V31.1002H35.9481C39.053 31.1002 39.2053 30.1659 39.3549 26.6747H39.6568V35.9155H39.3549C39.2053 32.3939 39.053 31.4624 35.9481 31.4624H34.109V38.9866C34.109 41.6043 34.109 42.0576 36.7929 42.088V42.3893H30.4004V42.088C32.3613 42.0576 32.3613 41.607 32.3613 38.9866V24.7204C32.3613 22.1027 32.3613 21.6494 30.4004 21.619V21.3177H42.7644L42.8558 29.0216V29.0243Z" fill="white"/>
<path d="M57.0035 37.2396V39.7992C57.0035 40.974 56.8539 41.455 56.6406 41.8144C56.4911 42.0853 56.0673 42.6879 55.1644 42.6879C54.4415 42.6879 54.0177 42.3866 53.7463 41.9664C53.5053 41.5739 53.353 40.8524 53.353 39.9209V37.2423C53.353 33.6599 51.5444 32.4575 49.5529 32.4575H46.93V38.9893C46.93 41.607 46.93 42.0604 49.4034 42.0908V42.3921H43.2214V42.0908C45.1823 42.0604 45.1823 41.6098 45.1823 38.9893V24.7232C45.1823 22.1055 45.1823 21.6521 43.2214 21.6217V21.3204H49.8548C53.112 21.3204 55.7654 22.5837 55.7654 26.8572C55.7654 30.4976 53.8654 32.0041 51.1206 32.3663C53.3225 33.0573 55.1616 34.984 55.1616 37.2727V39.8297C55.1616 40.4931 55.2225 40.974 55.3112 41.3057C55.4026 41.607 55.5521 41.8475 55.8845 41.8475C56.2778 41.8475 56.4578 41.4854 56.5188 41.3057C56.6102 41.0653 56.6988 40.7031 56.6988 39.802V37.2423H57.0007L57.0035 37.2396ZM49.8576 32.0926C52.9043 32.0926 53.7768 30.4672 53.7768 26.8544C53.7768 23.2416 52.9015 21.677 49.8576 21.677H48.7719C46.9328 21.677 46.9328 22.0972 46.9328 24.7177V32.0926H49.8576Z" fill="white"/>
<path d="M73.2506 42.0853V42.3866H66.9163V42.0853C69.4201 41.9056 69.2373 41.0017 68.4839 38.4724L67.3373 34.5887H61.3048L60.5515 37.2672C59.4353 41.209 59.2553 41.9028 62.0305 42.0825V42.3838H56.7542V42.0825C58.8038 41.9028 59.0475 41.361 60.1914 37.2672L64.7753 21.0136H65.0467L70.323 38.4697C71.1069 40.9685 71.6193 41.9001 73.2479 42.0825L73.2506 42.0853ZM67.2182 34.2597L64.2324 24.2367L61.399 34.2597H67.2182Z" fill="white"/>
<path d="M71.3811 31.8521C71.3811 25.2318 74.9706 21.0164 78.527 21.0164C80.3051 21.0164 81.4213 21.9783 82.2356 22.9734C82.6871 23.5152 82.928 23.8165 83.1718 23.8165C83.5651 23.8165 83.6842 23.3964 83.7451 21.0164H84.047L84.1384 29.685H83.8365C83.6869 26.7051 82.4184 21.3785 78.5602 21.3785C74.702 21.3785 73.403 26.5863 73.403 31.8521C73.403 37.118 74.2478 42.2953 78.4383 42.2953C81.0613 42.2953 82.4793 39.6168 82.4793 37.1484V35.3737C82.4793 32.7864 82.4793 32.3027 79.7955 32.2723V31.971H86.1271V32.2723C84.1966 32.3027 84.1966 32.7837 84.1966 35.3737V42.6879H83.9556L82.9308 37.1788C82.6594 40.1586 81.1527 42.6879 78.3165 42.6879C74.486 42.6879 71.3811 38.5332 71.3811 31.8521Z" fill="white"/>
<path d="M99.322 37.2396V39.7992C99.322 40.974 99.1724 41.455 98.9591 41.8144C98.8096 42.0853 98.3858 42.6879 97.4801 42.6879C96.7572 42.6879 96.3335 42.3866 96.062 41.9664C95.8211 41.5739 95.6687 40.8524 95.6687 39.9209V37.2423C95.6687 33.6599 93.8601 32.4575 91.8687 32.4575H89.2458V38.9893C89.2458 41.607 89.2458 42.0604 91.7191 42.0908V42.3921H85.5371V42.0908C87.4981 42.0604 87.4981 41.6098 87.4981 38.9893V24.7232C87.4981 22.1055 87.4981 21.6521 85.5371 21.6217V21.3204H92.1706C95.4278 21.3204 98.0811 22.5837 98.0811 26.8572C98.0811 30.4976 96.1811 32.0041 93.4363 32.3663C95.6383 33.0573 97.4774 34.984 97.4774 37.2727V39.8297C97.4774 40.4931 97.5383 40.974 97.6269 41.3057C97.7183 41.607 97.8679 41.8475 98.2002 41.8475C98.5935 41.8475 98.7736 41.4854 98.8345 41.3057C98.9259 41.0653 99.0145 40.7031 99.0145 39.802V37.2423H99.3164L99.322 37.2396ZM92.1734 32.0926C95.22 32.0926 96.0925 30.4672 96.0925 26.8544C96.0925 23.2416 95.2173 21.677 92.1734 21.677H91.0876C89.2485 21.677 89.2485 22.0972 89.2485 24.7177V32.0926H92.1734Z" fill="white"/>
<path d="M115.566 42.0853V42.3866H109.235V42.0853C111.739 41.9056 111.556 41.0017 110.802 38.4724L109.656 34.5887H103.623L102.87 37.2672C101.754 41.209 101.574 41.9028 104.346 42.0825V42.3838H99.0699V42.0825C101.119 41.9028 101.363 41.361 102.507 37.2672L107.091 21.0136H107.362L112.639 38.4697C113.423 40.9685 113.935 41.9001 115.564 42.0825L115.566 42.0853ZM109.534 34.2597L106.548 24.2367L103.715 34.2597H109.534Z" fill="white"/>
<path d="M131.193 21.3177V21.619C128.418 21.6494 128.418 23.2443 128.418 26.1633V42.3866H128.146L118.436 23.0038L118.466 37.5409C118.466 40.4599 118.436 42.0549 121.754 42.0853V42.3866H115.331V42.0853C118.106 42.0549 118.106 40.4599 118.106 37.5409V23.9381C118.106 22.6141 117.984 21.6494 115.273 21.6217V21.3204H119.494L128.058 38.4144V26.1661C128.058 23.2471 128.058 21.6521 124.77 21.6217V21.3204H131.193V21.3177Z" fill="white"/>
<path d="M130.49 31.8521C130.49 25.2318 134.079 21.0164 137.635 21.0164C139.414 21.0164 140.53 21.9783 141.344 22.9734C141.796 23.5152 142.037 23.8165 142.28 23.8165C142.674 23.8165 142.793 23.3964 142.854 21.0164H143.155L143.247 29.685H142.945C142.795 26.7051 141.527 21.3785 137.669 21.3785C133.81 21.3785 132.511 26.5863 132.511 31.8521C132.511 37.118 133.387 42.2345 137.699 42.2345C141.438 42.2345 142.826 37.9306 143.006 34.3178H143.308C143.186 37.8394 141.74 42.6851 137.489 42.6851C133.597 42.6851 130.492 38.5305 130.492 31.8494L130.49 31.8521Z" fill="white"/>
<path d="M156.6 33.8396L156.478 42.3866H143.873V42.0853C145.834 42.0549 145.834 41.6043 145.834 38.9838V24.7177C145.834 22.0999 145.834 21.6466 143.873 21.6162V21.3149H156.237L156.328 29.0188H156.026C155.846 23.8414 155.09 21.6743 152.498 21.6743H149.421C147.581 21.6743 147.581 22.0944 147.581 24.7149V31.1251H149.421C152.525 31.1251 152.678 30.1632 152.827 26.672H153.129V35.9128H152.827C152.678 32.3911 152.525 31.4292 149.421 31.4292H147.581V38.9838C147.581 41.6015 147.581 42.0244 149.421 42.0244H152.013C155.904 42.0244 156.145 38.9838 156.295 33.8368H156.597L156.6 33.8396Z" fill="white"/>
<path d="M80.5793 51.0883L81.1831 51.5334C80.9006 52.0613 80.5183 52.4649 80.042 52.7441C79.5656 53.0233 79.0199 53.1615 78.4106 53.1615C77.5077 53.1615 76.7626 52.8657 76.1727 52.2742C75.5827 51.6826 75.2891 50.928 75.2891 50.013C75.2891 49.0981 75.5827 48.3435 76.1727 47.7464C76.7626 47.1521 77.5077 46.8535 78.4106 46.8535C78.9701 46.8535 79.4797 46.9752 79.9367 47.2212C80.3965 47.4672 80.7649 47.8127 81.0501 48.2578L80.4242 48.7028C80.2303 48.3379 79.9561 48.056 79.6016 47.8542C79.247 47.6524 78.851 47.5529 78.4106 47.5529C77.7403 47.5529 77.1808 47.7823 76.7322 48.2439C76.2835 48.7056 76.0619 49.2916 76.0619 50.0075C76.0619 50.7235 76.2862 51.3067 76.7322 51.7656C77.1781 52.2244 77.7376 52.4511 78.4106 52.4511C79.3717 52.4511 80.0946 51.9922 80.5793 51.0773V51.0883Z" fill="white"/>
<path d="M86.4372 53.0067V46.9918H87.185V52.3156H91.1208V53.0067H86.4344H86.4372Z" fill="white"/>
<path d="M96.1229 46.9918V50.8865C96.1229 51.5113 96.2393 51.9287 96.4747 52.1415C96.7101 52.3543 97.1699 52.4594 97.8568 52.4594C98.5437 52.4594 99.0034 52.3543 99.2389 52.1415C99.4743 51.9287 99.5906 51.5113 99.5906 50.8865V46.9918H100.341V51.0883C100.341 51.8236 100.15 52.3543 99.7651 52.6778C99.3801 53.0012 98.7458 53.1643 97.8595 53.1643C96.9732 53.1643 96.3362 53.0012 95.954 52.6778C95.569 52.3543 95.3779 51.8236 95.3779 51.0883V46.9918H96.1285H96.1229Z" fill="white"/>
<path d="M105.919 53.0067V46.9918H109.487C110.686 46.9918 111.287 47.4893 111.287 48.4872C111.287 48.993 111.104 49.3607 110.739 49.5929C111.387 49.9661 111.711 50.4995 111.711 51.1989C111.711 51.7573 111.531 52.1968 111.174 52.5202C110.816 52.8436 110.315 53.0067 109.675 53.0067H105.917H105.919ZM106.667 49.369H109.553C110.201 49.369 110.525 49.0898 110.525 48.5314C110.525 47.9731 110.201 47.6828 109.553 47.6828H106.667V49.369ZM106.667 52.3156H109.822C110.171 52.3156 110.445 52.2161 110.639 52.0143C110.833 51.8126 110.93 51.5389 110.93 51.1878C110.93 50.8368 110.833 50.5714 110.639 50.3669C110.445 50.1623 110.174 50.06 109.822 50.06H106.667V52.3156Z" fill="white"/>
<path d="M86.26 16.8479V10.8385H87.0078V16.1569H90.9408V16.8479H86.26Z" fill="white"/>
<path d="M95.7574 16.8479V10.8385H100.494V11.5296H96.5052V13.2904H98.9176V13.9814H96.5052V16.1569H100.74V16.8479H95.7574Z" fill="white"/>
<path d="M93.5 64C68.6363 64 45.2516 60.7299 27.6528 54.7924C9.82141 48.7774 0 40.6838 0 32.0014C0 23.319 9.82141 15.2226 27.6528 9.20762C45.2516 3.27007 68.6363 0 93.5 0C118.364 0 141.748 3.27007 159.347 9.20762C177.179 15.2226 187 23.319 187 32.0014C187 40.6838 177.179 48.7802 159.347 54.7951C141.748 60.7327 118.364 64.0028 93.5 64.0028V64ZM93.5 1.38211C68.7831 1.38211 45.5563 4.62731 28.096 10.5151C19.6484 13.365 13.0287 16.6738 8.41716 20.353C3.75019 24.0764 1.38486 27.9933 1.38486 32.0014C1.38486 36.0095 3.75019 39.9264 8.41716 43.647C13.0287 47.3262 19.6484 50.635 28.096 53.4849C45.5563 59.3755 68.7831 62.6179 93.5 62.6179C118.217 62.6179 141.444 59.3727 158.904 53.4849C167.352 50.635 173.971 47.3262 178.583 43.647C183.25 39.9236 185.615 36.0067 185.615 32.0014C185.615 27.996 183.25 24.0764 178.583 20.353C173.971 16.6738 167.352 13.365 158.904 10.5151C141.444 4.62731 118.217 1.38211 93.5 1.38211Z" fill="white"/>
</g>
<defs>
<clipPath id="clip0_24_68">
<rect width="187" height="64" fill="white"/>
</clipPath>
</defs>
</svg>
