<svg width="1227" height="393" xmlns="http://www.w3.org/2000/svg" xmlns:xlink="http://www.w3.org/1999/xlink" overflow="hidden"><defs><clipPath id="clip0"><rect x="595" y="308" width="1227" height="393"/></clipPath></defs><g clip-path="url(#clip0)" transform="translate(-595 -308)"><path d="M777.84 33.4284C764.228 54.1096 763.852 83.7778 768.835 107.166 774.099 132.022 788.952 151.481 815.33 155.467 840.88 159.227 863.874 146.818 873.331 122.865 882.393 100.003 883.39 71.4255 875.381 48.1497 869.503 30.1222 854.54 16.5397 836.03 12.4275 814.86 7.91528 790.08 14.6837 777.84 33.3532M845.054 163.25C845.054 165.864 849.51 168.609 851.202 170 854.398 172.707 857.708 175.264 861.054 177.746 868.357 183.143 876.056 187.983 884.086 192.223 890.608 196.015 897.662 198.809 905.011 200.514 910.445 201.623 916.066 201.567 921.5 202.563 925.429 203.315 930.317 204.443 929.697 209.463 929.001 215.292 919.394 214.54 915.314 214.54 899.22 214.54 882.751 212.66 867.86 206.211 852.443 199.668 838.794 189.027 825.934 178.423L816.533 170.752C813.553 168.087 809.921 166.258 806.004 165.45 798.153 163.499 790.574 160.581 783.443 156.764 757.366 142.644 740.294 116.736 739.354 87.0116 738.414 57.287 752.252 28.5777 777.69 12.7284 817.103-11.8655 868.99 0.147023 893.584 39.5591 901.409 52.1007 905.791 66.4836 906.29 81.2585 907.042 111.566 892.997 139.786 865.999 154.733 859.323 158.329 852.274 161.185 844.979 163.25" fill="#1A1A18" transform="matrix(1.00389 0 0 1 595.399 308)"/><path d="M433.14 4.49347C463.749 4.79429 494.338 4.49347 524.928 5.0575 532.091 5.15151 539.273 5.84715 546.436 5.58394 551.794 5.33952 556.025 2.85777 561.157 2.35014 570.859 1.35368 569.204 16.8646 569.336 22.8998 569.561 29.6682 573.303 40.4976 569.618 46.5704 568.221 48.6472 565.406 49.1988 563.329 47.8024 562.844 47.4755 562.424 47.057 562.097 46.5704 559.992 43.4682 559.935 39.0499 559.634 35.2897 558.807 25.9832 556.457 17.4851 545.515 16.5826 539.348 16.075 533.162 17.1278 526.958 17.1278 520.133 17.1278 513.327 17.1278 506.559 17.1278 506.86 54.5421 506.202 91.9187 506.559 129.295 506.559 136.647 505.619 145.032 507.367 152.214 508.458 156.783 514.23 156.613 517.971 156.745 521.713 156.877 526.977 156.313 530.455 158.512 535.137 161.464 531.715 166.916 527.127 167.161 520.378 167.499 513.29 165.864 506.446 165.6 497.835 165.262 489.243 165.6 480.613 165.995 474.973 166.258 468.317 167.574 462.752 166.39 460.763 166.103 459.129 164.675 458.578 162.743 457.638 158.644 460.308 156.895 464.106 156.538 469.239 156.068 477.267 158.945 481.516 154.658 485.088 150.898 484.731 143.81 484.693 139.053 484.58 123.899 484.185 108.727 484.185 93.5732 484.185 70.523 485.088 47.36 483.697 24.3475 483.546 21.9785 483.358 19.5908 483.151 17.1842 480.331 17.1842 477.511 17.1842 474.71 17.0902 469.483 16.921 464.388 16.921 459.218 16.6954 452.43 16.4134 438.367 12.9352 434.663 20.8128 431.185 28.1077 432.595 37.1134 429.888 44.7091 427.18 52.3047 420.092 48.0745 419.641 41.7573 418.946 33.3156 421.183 24.5543 421.973 16.169 422.574 9.45697 424.172-1.09047 433.14 4.49347" fill="#1A1A18" transform="matrix(1.00389 0 0 1 595.399 308)"/><path d="M623.577 17.203C623.408 21.5649 628.353 26.1712 630.533 29.5742 634.162 35.3273 637.716 41.0241 641.25 46.7584 648.432 58.3211 655.614 69.9214 663.266 81.1081 672.93 66.7252 681.898 51.8723 691.035 37.1134 694.081 32.1499 709.367 15.4169 696.018 14.2137 693.141 14.0068 688.253 14.7213 686.467 11.7883 681.597 3.59102 695.435 4.26786 699.628 4.70028 707.622 5.34245 715.659 5.24174 723.637 4.39946 727.491 4.06104 736.102 1.89891 737.831 7.05042 741.159 16.7142 728.581 13.3676 724.238 15.0033 718.147 17.2594 714.838 25.4567 711.773 30.6458 703.162 45.5739 693.386 59.9192 684.117 74.4525 680.112 80.8449 674.885 87.2748 671.915 94.2501 668.662 101.959 669.865 112.318 670.035 120.572 670.223 129.446 670.693 138.357 670.862 147.25 670.862 151.387 671.163 153.756 675.694 154.771 679.426 155.341 683.212 155.473 686.974 155.166 690.96 155.166 696.488 155.692 696.845 160.806 697.277 167.499 690.622 168.157 685.564 167.706 672.028 166.465 659.544 165.055 645.913 166.296 639.99 166.804 619.403 170.263 621.603 158.776 622.543 153.793 628.898 153.53 632.884 153.492 635.779 153.492 638.674 153.492 641.626 153.624 643.657 153.624 644.277 154.188 645.142 152.12 646.018 149.925 646.601 147.624 646.872 145.276 647.924 137.756 646.872 129.859 646.872 122.17 646.872 114.48 647.849 106.001 645.969 98.2547 644.333 91.4487 639.182 85.3947 635.309 79.604 630.421 72.2903 625.758 64.7511 620.945 57.381 616.489 50.481 611.977 43.7126 607.54 36.6998 603.779 31.0595 600.978 24.6483 596.748 19.2524 592.988 14.5333 589.227 14.6461 583.869 13.142 581.273 12.48 579.705 9.83904 580.366 7.24313 580.806 5.52311 582.149 4.18004 583.869 3.74142 590.581 1.7485 598.91 4.45587 605.622 5.11391 614.91 5.99756 623.521 3.23379 632.639 2.85777 635.76 2.74496 640.028 3.10219 641.814 6.16677 643.1 8.34947 642.374 11.1618 640.192 12.4482 639.983 12.5712 639.765 12.6774 639.539 12.766 634.425 14.6461 627.506 12.2207 623.577 17.0526" fill="#1A1A18" transform="matrix(1.00389 0 0 1 595.399 308)"/><path d="M246.295 3.98584C250.055 3.83543 255.902 3.98584 255.959 9.11855 255.959 14.7589 250.318 14.5897 246.069 14.4393 242.535 14.2889 236.387 13.518 234.243 17.2406 231.668 21.6777 232.213 28.5213 232.232 33.4096 232.232 67.2516 232.551 101.094 232.551 134.936 232.551 139.843 230.521 151.443 234.563 155.26 236.951 157.535 242.365 156.745 245.317 156.858 248.269 156.971 253.063 156.689 254.924 159.302 258.384 164.059 251.333 167.706 247.554 167.48 231.837 166.352 216.345 164.134 200.552 165.6 197.205 165.92 188.143 167.48 188.199 161.972 188.199 157.591 195.118 157.347 198.183 157.065 201.247 156.783 205.365 156.914 208.091 155.185 210.817 153.455 210.873 148.943 211.08 146.273 211.795 136.647 210.685 126.889 210.685 117.263 210.685 90.9411 210.272 64.6195 211.287 38.2979 211.569 31.4355 213.731 18.8575 205.515 16.0938 202.469 15.0597 181.657 14.6461 188.951 6.84361 193.576 1.89891 206.963 5.30192 212.735 5.80955 224.015 6.78721 235.071 4.43707 246.351 3.92944" fill="#1A1A18" transform="matrix(1.00389 0 0 1 595.399 308)"/><path d="M1056.83 16.169C1052.86 13.1608 1036.3 16.5826 1036.62 9.55097 1036.96 2.80137 1043.69 4.32426 1048.37 4.85069 1055.51 5.89248 1062.75 6.1949 1069.95 5.75315 1075.03 5.24551 1096.73-0.131608 1095.47 10.209 1094.34 19.76 1077.76 10.6038 1074.15 17.4286 1071.55 22.3733 1072.49 29.593 1072.55 34.9701 1072.55 43.4118 1072.55 51.8911 1072.55 60.2764 1072.55 77.1974 1073.49 94.1185 1073.21 111.039 1073.06 125.159 1072.27 139.58 1061.36 149.901 1052.49 158.305 1040.12 163.363 1028.31 165.826 1003.4 171.034 968.653 169.586 948.818 151.575 938.308 142.024 937.217 126.212 937.011 112.957 936.71 95.6413 937.199 78.2879 937.255 60.9157 937.255 52.2671 937.255 43.6562 937.105 34.9513 937.011 30.4578 936.954 25.8892 936.804 21.3957 936.672 17.8611 937.217 15.3605 933.288 14.6273 928.701 13.706 923.887 14.9469 919.338 14.0444 916.01 13.3488 914.374 8.74253 917.458 6.6368 923.436 2.33134 933.965 4.75669 940.752 5.0387 949.156 5.30192 957.579 5.60274 965.964 5.0387 970.608 4.66268 983.487 0.958858 983.28 9.55097 983.036 18.9515 963.953 9.85179 961.452 18.2183 959.76 23.7646 960.813 30.3638 961.039 36.023 961.396 44.6339 960.662 53.32 960.512 61.9309 960.061 79.7356 959.722 97.6531 959.948 115.477 960.098 127.02 961.979 137.06 971.379 144.524 986.138 156.275 1008.38 158.287 1026.32 154.32 1035.1 152.44 1043.9 148.679 1050.36 142.287 1058.58 134.127 1059.61 123.73 1059.33 112.656 1058.92 95.961 1058.88 79.3032 1058.88 62.589 1058.88 54.2789 1058.69 45.9124 1058.88 37.5835 1059.07 30.4578 1059.61 22.9186 1056.76 16.1126" fill="#1A1A18" transform="matrix(1.00389 0 0 1 595.399 308)"/><path d="M1142.9 19.2336C1141.62 37.4518 1142.71 55.8018 1142.34 74.02 1150.52 74.9161 1158.76 75.2677 1166.99 75.0729 1171.27 75.0729 1175.56 75.0729 1179.88 75.0729 1184.21 75.0729 1186.33 74.2081 1188.01 69.9026 1189.68 65.5971 1188.98 56.8546 1193.12 53.9968 1200.64 48.8077 1200.77 60.6712 1200.49 64.5255 1199.98 72.0459 1200.38 79.7168 1200.49 87.2372 1200.49 90.8471 1202.71 110.739 1198.25 111.434 1188.46 112.882 1190.17 96.9762 1187.63 91.3359 1185.62 86.8988 1172.91 88.0457 1168.83 88.0833 1160.22 88.0833 1151.61 88.7789 1143.03 88.2713 1141.96 105.738 1142.54 123.204 1142.39 140.614 1142.39 146.16 1142.88 150.014 1148.67 151.123 1154.56 152.041 1160.52 152.387 1166.48 152.158 1177.14 152.158 1191.8 156.068 1201.66 151.255 1212.05 146.16 1205.94 128.694 1213.26 121.549 1217.49 117.394 1221.02 122.602 1221.43 126.456 1221.98 131.664 1220.81 136.891 1220.42 142.099 1219.82 148.867 1220.42 157.328 1217.94 163.777 1216.28 167.969 1208.39 166.766 1204.91 166.634 1189.58 166.033 1174.39 164.867 1159.01 164.98 1140.66 164.98 1122.07 167.255 1103.78 166.616 1100.02 166.484 1093.3 163.025 1098.14 158.813 1101.46 155.805 1107.65 156.369 1111.82 155.955 1114.16 155.954 1116.37 154.938 1117.9 153.173 1120.19 150.804 1119.33 145.878 1119.38 142.456 1119.57 133.544 1119.61 124.614 1119.68 115.683 1119.8 97.5967 1119.68 79.4724 1119.68 61.3293 1119.68 52.756 1119.68 44.1451 1119.68 35.5529 1119.68 30.7962 1122.16 20.9445 1117.8 17.4474 1112.91 13.6872 1099.88 18.7823 1097.27 12.3899 1094.53 5.52753 1103.14 5.33952 1107.5 5.54633 1116.9 5.92236 1126.17 5.54633 1135.42 5.54633 1153.75 5.54633 1172.08 5.54633 1190.41 6.05396 1193.91 6.2811 1197.42 6.07269 1200.87 5.43353 1203.33 4.85069 1205.32 3.08338 1207.77 4.90709 1212.17 8.19729 1211.53 17.015 1211.75 21.8281 1211.98 26.6412 1217.67 49.5786 1208.72 49.0897 1199.32 48.5821 1200.72 27.2992 1196.64 22.0349 1192.01 16.075 1179.81 18.7823 1173.4 19.1772 1163.3 19.8164 1153.32 17.9175 1143.22 19.2712" fill="#1A1A18" transform="matrix(1.00389 0 0 1 595.399 308)"/><path d="M44.6903 17.6919C44.6903 52.5492 45.8184 87.5193 44.5963 122.339 44.4083 127.697 44.1074 133.037 44.0886 138.433 44.0886 142.193 43.3554 148.454 45.7055 151.593 48.8829 156.031 59.6184 154.639 64.2623 154.752 72.7604 154.94 81.1833 155.053 89.719 154.639 103.218 153.962 115.289 151.631 125.103 141.779 134.917 131.928 140.144 118.917 142.983 105.869 149.055 77.8179 144.129 45.0851 119.425 27.1864 109.535 20.136 97.7659 17.5227 85.846 16.7142 79.0023 16.2254 72.1023 16.2254 65.1647 16.2254 61.5925 16.2254 45.9312 14.3453 44.6151 17.6919M0.376023 11.6191C0.225614 7.87767 0.112807 5.0763 4.49347 4.86949 8.76979 4.71577 13.0514 4.81623 17.3158 5.17031 26.2783 5.8812 35.276 6.03819 44.2579 5.64034 60.4268 4.73788 76.6898 3.76023 92.8776 4.83189 124.313 6.95642 154.414 23.445 166.71 53.7148 178.404 82.4053 168.59 118.353 149.187 141.347 139.993 152.289 127.96 161.295 113.878 164.397 98.8375 167.706 83.0446 167.499 67.7781 166.747 56.911 166.315 46.1568 165.694 35.3085 165.751 29.8186 165.751 24.2535 166.052 18.7635 166.202 13.988 166.352 5.48993 168.082 1.41008 164.698-1.48529 162.254 0.507631 158.042 3.60982 157.046 7.87767 155.711 12.5404 156.407 16.7706 155.391 24.5355 153.511 22.6366 140.106 22.5802 134.278 22.2041 107.336 21.0761 80.3184 21.9409 53.4328 22.2793 43.017 24.1218 32.0183 22.4297 21.6025 20.23 7.78367 7.52045 18.6319 0.376023 11.6191" fill="#1A1A18" transform="matrix(1.00389 0 0 1 595.399 308)"/><path d="M360.342 79.0964C372.432 70.5042 377.376 52.4363 371.623 38.8995 368.653 31.9619 363.426 24.4227 356.206 21.2829 349.419 18.2747 341.165 17.7295 333.852 17.5227 332.16 17.5227 330.505 17.5227 328.813 17.5227 326.218 17.5227 325.711 16.8834 325.598 19.7788 325.354 24.7799 325.203 29.7434 325.147 34.8197 325.015 45.1039 325.147 55.5009 325.26 65.7099 325.26 70.8239 325.26 75.9754 325.26 81.0705 325.26 84.3795 326.482 83.383 329.358 83.571 332.235 83.759 334.66 84.0222 337.311 84.0975 345.17 84.3419 353.724 83.8718 360.342 79.1716M325.711 93.874C324.771 110.983 324.959 128.148 325.222 145.22 325.316 149.92 325.034 155.88 330.862 156.501 335.544 157.083 340.263 156.162 344.944 156.726 348.705 157.253 352.07 159.828 350.472 164.04 348.423 169.549 336.991 166.559 332.818 166.202 325.297 165.544 317.777 164.792 310.256 164.848 302.285 164.848 294.369 166.954 286.492 166.728 282.431 166.597 277.091 162.968 281.227 158.738 284.123 155.73 290.026 156.331 293.786 156.143 295.742 156.124 297.684 155.833 299.558 155.279 302.548 154.263 301.984 150.578 302.191 147.908 303.037 138.508 302.435 129.107 302.435 119.707L302.435 64.8075C302.435 51.8347 303.413 38.6175 302.792 25.6635 302.661 22.7682 302.792 18.4627 300.78 16.075 298.487 13.1796 292.527 14.3265 289.349 14.4205 285.589 14.4205 280.983 13.8564 281.622 9.00574 282.167 4.60628 288.503 5.24551 291.643 5.35832 304.353 6.27958 316.874 6.20437 329.64 6.01636 342.801 5.82835 356.751 5.71554 369.367 10.1526 394.184 18.8763 405.935 47.7549 391.928 70.5042 377.921 93.2536 350.115 95.8858 325.711 93.7988" fill="#1A1A18" transform="matrix(1.00389 0 0 1 595.399 308)"/><path d="M531.922 351.769 549.745 351.769C547.038 344.061 544.255 336.409 541.096 328.945 538.145 336.597 534.779 343.985 531.922 351.769M548.203 308.132C554.013 322.439 559.334 337.01 564.88 351.374 567.512 358.193 570.225 364.992 573.021 371.774 574.431 375.064 575.86 378.41 577.364 381.701 578.868 384.991 581.651 384.088 584.884 385.01 587.197 385.686 588.231 389.653 586.088 391.063 583.944 392.474 580.861 391.609 578.68 391.308 572.551 390.834 566.392 390.898 560.274 391.496 557.435 391.496 551.381 391.947 551.663 387.566 551.926 383.505 559.785 384.558 562.455 384.182 561.381 378.634 559.48 373.278 556.814 368.295 555.461 365.541 554.287 362.702 553.298 359.797L533.745 359.797C529.007 359.797 528.725 360.587 526.77 364.836 524.044 370.702 522.183 376.906 519.25 382.641 522.089 384.088 530.793 383.017 528.838 388.713 527.56 392.474 519.682 390.894 516.899 390.8 513.703 390.65 504.923 392.962 502.686 389.992 501.667 388.181 502.178 385.893 503.87 384.69 504.886 384.327 505.938 384.081 507.01 383.957 509.304 383.562 509.435 382.077 510.432 380.008 517.313 366.246 522.728 351.807 528.349 337.518 531.151 330.336 533.99 323.173 537.167 316.085 539.649 310.557 541.134 304.522 548.26 308.057" fill="#1A1A18" transform="matrix(1.00389 0 0 1 595.399 308)"/><path d="M726.908 313.716C725.667 317.213 718.918 315.182 716.191 316.273 715.966 323.229 715.778 330.223 715.684 337.198 715.477 352.239 715.59 367.28 716.173 382.208 716.323 387.623 724.52 382.208 726.588 386.702 728.657 391.195 722.828 392.06 719.707 391.834 714.719 391.199 709.694 390.922 704.666 391.007 701.602 391.445 698.513 391.695 695.416 391.759 691.318 391.665 691.073 389.522 691.224 385.78 692.652 383.562 695.886 383.693 698.105 383.9 699.233 384.032 700.323 384.163 701.432 384.333 701.814 382.28 702.089 380.21 702.26 378.128 702.974 369.987 702.523 361.771 702.467 353.687 702.467 346.166 702.467 338.646 702.467 331.125 702.467 326.181 705.099 317.175 698.706 316.367 696.262 316.028 691.731 316.367 691.186 313.076 690.133 306.628 701.884 309.523 705.155 309.692 710.495 310.087 727.265 304.277 726.946 313.866" fill="#1A1A18" transform="matrix(1.00389 0 0 1 595.399 308)"/><path d="M793.126 308.658C795.231 310.726 794.724 314.298 794.63 317.062 794.786 320.484 795.149 323.893 795.72 327.271 796.265 334.058 788.707 332.235 787.805 327.008 787.072 322.928 787.222 318.134 782.785 316.16 777.145 313.584 768.59 314.129 763.683 317.889 758.456 321.932 755.918 329.471 760.524 335.017 764.811 340.225 772.369 341.899 778.461 343.985 791.622 348.404 803.034 358.632 799.838 373.842 797.055 387.002 784.534 392.511 772.087 392.962 765.294 393.15 758.511 392.306 751.97 390.462 749.676 389.804 745.371 389.559 745.314 387.002 745.126 384.481 744.807 381.971 744.356 379.482 743.773 375.816 742.231 369.931 744.562 366.584 747.984 361.621 751.293 369.687 751.838 372.225 753.606 380.742 759.49 384.69 768.289 385.386 777.088 386.081 787.767 382.321 787.767 371.98 787.636 357.973 768.477 355.548 758.682 350.829 747.79 345.858 742.991 332.998 747.962 322.107 748.353 321.249 748.8 320.418 749.3 319.619 758.983 303.225 777.709 309.73 793.126 308.621" fill="#1A1A18" transform="matrix(1.00389 0 0 1 595.399 308)"/><path d="M639.332 346.223C647.229 340.582 646.251 323.774 638.355 318.867 635.723 317.388 632.722 316.69 629.706 316.855 627.939 316.855 626.228 316.855 624.498 316.855 620.475 316.855 620.418 316.404 620.155 320.616 619.554 329.847 620.306 339.022 619.967 348.178 626.096 347.802 633.993 349.927 639.332 346.298M645.443 351.938C647.981 359.026 653.809 364.629 657.419 371.134 661.029 377.639 663.059 383.543 670.899 384.445 673.607 384.746 676.089 385.686 675.412 389.014 674.584 393.32 670.862 392.774 666.951 392.774 659.826 392.774 653.095 390.894 648.959 384.803 644.822 378.711 641.664 371.962 637.847 365.72 635.967 362.411 633.899 359.102 631.699 355.905L624.987 355.905C621.076 355.905 620.475 355.285 620.212 359.308 619.715 366.755 619.791 374.229 620.437 381.663 620.926 387.078 629.932 382.528 632.019 386.908 635.008 393.075 624.31 391.891 621.547 391.628 614.026 390.8 606.506 392.229 599.098 391.628 593.589 391.101 594.172 384.765 599.399 384.314 600.94 384.201 602.445 384.314 603.967 384.314 606.976 384.314 605.848 382.547 606.017 380.008 606.224 374.895 606.355 369.743 606.393 364.648 606.393 355.642 606.393 346.58 606.299 337.574 606.299 333.024 606.299 328.531 606.299 324.019 606.299 319.506 607.483 316.498 602.106 316.367 600.226 316.273 596.879 316.724 595.657 314.806 595.357 312.738 595.413 310.068 597.631 309.053 602.313 306.966 609.927 309.918 614.947 309.673 628.541 309.053 647.454 305.913 656.404 319.281 663.454 329.922 658.058 347.934 645.556 351.844" fill="#1A1A18" transform="matrix(1.00389 0 0 1 595.399 308)"/><path d="M484.054 332.009C483.606 325.519 479.128 320.01 472.867 318.247 469.227 317.085 465.373 316.75 461.587 317.269L461.587 341.598C461.587 344.267 460.289 348.159 463.373 348.479 467.016 349 470.733 348.599 474.183 347.313 480.455 344.916 484.43 338.708 483.979 332.009M439.664 309.147C457.319 309.786 497.572 303.187 498.061 330.768 498.305 345.114 487.212 354.006 473.845 355.36 470.634 355.693 467.4 355.742 464.181 355.511 461.098 355.266 461.981 356.169 461.793 358.857 461.681 360.737 461.587 362.617 461.511 364.497 461.511 368.258 459.8 383.543 463.88 384.408 466.625 385.01 472.341 383.299 473.976 386.401 478.056 394.053 463.391 391.402 460.383 391.12 456.717 390.757 453.028 390.656 449.347 390.819 446.226 391.007 442.541 392.699 439.401 391.609 437.54 391.02 436.51 389.033 437.098 387.172 437.288 386.572 437.636 386.032 438.104 385.611 439.758 384.201 442.391 384.333 444.421 384.163 448.181 383.938 447.862 383.393 448.012 379.689 448.125 375.534 448.257 371.379 448.313 367.186 448.463 358.538 448.501 349.945 448.445 341.335 448.388 332.724 448.125 324.583 447.862 316.254 445.418 315.032 442.428 316.103 439.89 315.408 437.051 314.618 437.107 310.2 439.664 309.109" fill="#1A1A18" transform="matrix(1.00389 0 0 1 595.399 308)"/></g></svg>