<?xml version="1.0" encoding="UTF-8"?>
<svg id="Capa_2" data-name="Capa 2" xmlns="http://www.w3.org/2000/svg" viewBox="0 0 2426.46 946.55">
  <defs>
    <style>
      .cls-1 {
        fill-rule: evenodd;
      }
    </style>
  </defs>
  <g id="Capa_1-2" data-name="Capa 1">
    <g>
      <path class="cls-1" d="M1323.36,201.2c1.25,52.81,35.21,74.19,62.88,72.93,49.04,0,62.88-72.93,55.33-144.6-3.77-40.25-16.34-82.99-64.14-82.99-23.89,0-50.28,25.15-54.06,52.81v101.85h-.01ZM1281.87,55.33c-15.1,0-44.03,3.77-44.03-20.12,0-13.83,7.55-18.86,16.37-18.86,17.6,0,33.94,0,54.06-1.26,3.77,0,10.05,21.37,15.1,21.37,3.77,0,18.85-16.35,22.62-17.61,31.44-15.08,60.36-10.05,85.52,3.79,28.92,17.6,47.78,51.55,51.55,89.27,10.05,103.11-11.32,164.73-46.54,184.85-40.23,25.15-76.7,20.12-111.92-1.26l-1.25,76.7c26.39,0,64.11-6.29,64.11,18.86,0,12.58-11.3,18.87-20.12,18.87h-114.42c-7.55,0-15.1-8.81-15.1-20.12,1.27-23.89,27.66-17.6,44.03-17.6V55.33h0ZM1069.35,409.94c-12.57,0-32.7-5.03-32.7-18.87,1.26-21.37,11.32-21.37,40.23-21.37,0-57.85,3.77-169.76-5.03-193.65-6.29-17.6-18.86-30.18-50.3-30.18s-65.39,18.87-64.14,70.43l-1.26,154.66c15.08,0,49.04-6.29,50.3,17.61,0,15.08-6.29,21.37-18.86,21.37h-85.48c-7.55,0-30.18,0-30.18-17.6-1.26-21.37,22.65-23.89,40.25-22.63v-216.3c-20.12,0-41.49,2.52-42.75-18.86,0-28.92,27.66-21.37,67.9-21.37,11.32,1.26,13.83,6.29,18.87,20.12,10.05-5.03,11.32-8.81,25.15-16.34,15.08-7.55,32.7-12.58,49.04-12.58,28.91,0,69.15,0,81.74,40.25,7.55,21.37,11.32,45.28,11.32,70.43v154.66c21.37,0,41.5-1.26,41.5,20.12,0,15.08-10.06,20.12-26.41,20.12h-69.19ZM692.11,369.7c26.41-1.26,50.3-17.6,56.59-46.52v-61.61c-33.94-1.26-105.63,1.26-101.85,60.36,2.52,36.45,25.15,49.01,45.26,47.77ZM761.28,375.98c-46.52,51.55-155.92,52.81-155.92-56.59,0-69.15,41.5-82.98,113.17-94.3,20.12-3.77,30.18-13.83,28.92-26.41,0-33.94-1.26-66.64-41.5-66.64-15.1,0-37.72,0-41.49,23.89-1.26,21.37,28.92,55.33-21.37,55.33-13.83,0-26.41-25.15-26.41-40.25,0-52.81,51.55-71.67,88.01-72.93,26.41,0,66.65,2.52,76.72,38.99,17.6,60.35,11.32,147.12,12.57,209.99,1.26,21.37,23.89,13.83,25.15,3.77,2.52-37.72-2.52-54.06,2.52-61.61,6.29-11.32,11.32-8.81,18.86-8.81,11.32,0,17.6,8.81,18.87,18.87,3.77,30.18,0,80.48-18.87,96.82-6.29,6.29-21.37,10.05-31.43,10.05-17.63-.01-33.97-3.77-47.79-30.19h0ZM1596.23,369.7c26.39-1.26,49.04-17.6,56.56-46.52v-61.61c-35.21-1.26-105.61,1.26-103.1,60.36,2.52,36.45,26.39,49.01,46.54,47.77ZM1664.13,375.98c-45.26,51.55-154.68,52.81-154.68-56.59,0-69.15,40.26-82.98,113.19-94.3,20.12-3.77,28.92-13.83,28.92-26.41,0-33.94-2.53-66.64-41.49-66.64-15.1,0-38.99,0-42.76,23.89-1.27,21.37,30.17,55.33-20.12,55.33-15.1,0-27.66-25.15-27.66-40.25,0-52.81,51.55-71.67,89.27-72.93,26.39,0,66.65,2.52,76.7,38.99,16.34,60.35,11.32,147.12,12.57,209.99,1.27,21.37,23.92,13.83,25.15,3.77,2.53-37.72-3.77-54.06,1.27-61.61,6.28-11.32,12.57-8.81,20.12-8.81,10.05,0,17.6,8.81,18.87,18.87,3.77,30.18-1.27,80.48-18.87,96.82-7.55,6.29-22.62,10.05-32.7,10.05-16.35-.01-33.95-3.77-47.78-30.19h0ZM518.59,221.32c0-57.85-22.63-82.99-56.59-81.74-36.47-1.26-62.88,27.66-61.61,81.74h118.19ZM399.12,262.82c1.26,70.41,27.66,105.63,60.36,105.63s57.85-20.12,59.1-52.81c1.26-10.06,10.06-27.66,22.63-27.66,27.66,0,32.7,46.52,2.52,80.48s-47.78,41.5-82.99,41.5c-30.18,0-62.88-12.58-81.74-45.28-20.12-32.7-28.91-75.45-28.91-116.94,0-82.99,44.01-148.39,113.17-148.39s104.37,75.45,104.37,128.27c0,17.6,0,30.18-8.81,31.44-11.32,6.26-99.35,3.76-159.71,3.76ZM311.11,328.2c0,49.04-25.15,81.74-75.45,81.74-36.47,0-75.45-11.32-75.45-57.85,0-20.12,8.81-30.18,30.18-30.18,23.89,0,27.66,16.34,23.89,27.66-7.55,26.41-2.52,23.89,20.12,23.89,28.92,0,31.44-17.6,31.44-59.1l1.26-252.74c-1.26-13.83-6.28-23.89-13.83-23.89-22.63,0-30.18-2.52-30.18-20.13,0-16.34,11.32-17.6,22.63-17.6h65.39v328.2h-.01ZM2085.39,31.44c0-18.86,42.74-16.34,75.43-16.34h2.5c3.77,0,6.28,2.52,7.55,6.29,1.27,5.03,2.5,10.05,2.5,15.1v315.62c0,20.12,6.3,26.41,15.1,26.41h-2.5,25.14c5.05,0,8.82,2.52,11.32,6.29q2.53,3.77,2.53,7.55v1.26c0,5.03-1.27,7.55-3.77,11.31-2.53,3.77-6.3,5.03-11.32,5.03h-110.65c-3.77,0-6.3-1.26-8.82-5.03-2.5-2.5-3.77-6.28-5.02-8.79v-2.52l1.25,2.52v-3.77c1.27-3.77,2.5-6.29,5.05-8.81,1.92-3.02,5.21-4.91,8.79-5.03,13.83,0,25.15,2.52,30.19-11.31,2.5-3.77,2.5-8.81,1.25-15.1V80.48c0-22.63-7.55-28.92-18.85-30.18-21.39-1.26-26.42-2.5-27.66-18.86h0ZM2026.26,362.15c7.55,0,45.26-11.32,45.26,8.79,0,25.15-54.06,37.73-69.15,37.73-15.07-2.52-12.57-23.89-12.57-38.97-17.6,22.63-40.26,41.49-86.75,40.25-44.03-1.26-64.14-30.18-70.43-57.85-13.83-51.55-5.05-129.52-6.28-181.07,0-22.63-7.55-22.63-17.6-23.89-10.05,0-23.89-3.77-23.89-15.1-1.27-17.6,17.57-16.34,36.46-16.34,7.55,0,26.39-2.52,46.54,0,2.5,3.77,5.02,7.55,5.02,12.58-1.25,40.25-1.25,139.58,0,198.67,0,38.97,21.37,50.3,46.54,50.3,23.89-1.26,49.04-21.37,65.38-40.23v-158.45c0-13.83,1.27-28.92-6.28-33.95-11.32-6.28-40.23,3.77-41.49-15.08,0-12.57,3.77-18.86,18.87-18.86h57.83c3.77,0,7.55,2.52,8.79,7.55,2.53,3.77,3.77,10.06,3.77,16.34v227.59h-.03Z"/>
      <path class="cls-1" d="M1285.65,407.42c-10.08,10.05-16.37,22.63-18.87,38.97-3.77,11.32-5.05,26.41-5.05,44.02,0,7.55,0,13.83-1.25,17.6-2.5,5.02-6.28,8.79-12.59,10.05-5.02-1.27-8.79-1.27-12.57-6.28l-3.77-6.28-13.83-116.95,62.88-8.81,5.05,27.66h0ZM1411.39,358.38l40.23,315.61c1.27,11.32,2.5,16.37,5.05,18.87,1.25,2.5,6.28,5.05,13.83,6.28,7.52,1.27,11.3,5.05,12.57,11.32,0,6.28-2.5,11.32-6.28,13.83s-7.55,3.77-8.82,3.77l-126.99,21.37c-11.32,1.25-17.6-3.77-18.87-12.59-1.27-7.55,2.5-12.57,7.55-15.07,7.55-3.77,12.57-7.55,13.83-11.32,0-1.27,0-7.55-1.27-18.87l-40.23-315.61,109.41-17.59ZM1559.76,372.21c-2.5-2.52-7.55-5.03-15.1-5.03-6.28-2.52-10.05-6.29-10.05-13.83-1.25-6.29,1.27-10.06,6.28-13.83,1.27-2.52,3.77-3.77,8.82-3.77l125.74-20.12c11.32-1.26,17.6,2.52,17.6,12.57,1.27,6.29-1.27,12.58-7.55,15.1-7.55,3.77-11.32,7.55-11.32,10.06-1.25,3.77-1.25,8.81-1.25,18.86l33.94,261.56c1.25,10.05,2.5,15.1,3.77,17.6,2.5,2.5,6.28,5.02,15.1,7.55,7.52,0,10.05,5.02,11.3,10.05,1.27,6.28-1.25,11.32-6.28,15.07l-8.79,3.77-125.74,20.14h-8.82c-6.28-1.27-8.79-6.3-10.05-12.59s2.5-11.32,7.55-15.07c7.55-3.77,12.57-7.55,12.57-11.32,1.27-1.27,1.27-7.55,0-18.87l-33.94-259.03c0-10.06-2.52-16.35-3.77-18.87h0ZM1435.28,383.53l-3.77-28.92,64.11-10.05,15.1,115.68c1.27,2.52,0,5.03-1.27,7.55-2.5,5.03-6.28,8.81-11.3,8.81-5.05,1.27-10.05-1.27-12.59-6.28-3.77-2.53-3.77-7.56-7.55-15.1-5.02-16.34-8.79-30.18-13.83-40.25-6.88-12.71-16.81-23.51-28.9-31.44h0ZM2009.93,261.56l13.83,101.85c0,7.55-3.77,11.32-12.57,12.58-5.05,1.26-10.05-1.26-13.83-10.06-18.87-38.97-45.26-59.1-83.01-59.1l-3.75-28.92,99.32-16.34h0ZM2074.07,281.68c-7.55-2.52-11.32-6.29-12.59-12.58-1.25-8.81,3.77-15.08,15.1-18.86l118.19-18.87,40.26,318.14c1.25,8.79,2.5,13.83,3.77,17.6,2.5,1.27,7.52,5.05,15.07,6.28,6.28,0,10.05,5.05,11.32,11.32,1.27,8.79-3.77,15.1-13.83,18.85l-127.01,20.14-8.79-1.27c-6.28-1.25-10.05-5.02-10.05-11.32-1.27-7.55,1.25-12.57,7.55-16.34,7.52-3.77,11.3-6.28,13.83-10.05,1.25-2.5,0-8.82-2.53-18.87l-31.44-260.29c-2.5-10.05-3.77-15.08-5.02-18.86-2.5-2.49-6.28-3.75-13.83-5.01h0ZM1758.43,318.15c-2.5-8.81,2.5-15.08,13.83-17.6l118.19-18.86,47.81,370.96-118.19,20.12-10.08-1.27c-5.02-2.5-7.55-6.28-8.79-12.57-1.27-6.28,2.5-11.32,7.55-15.1,8.79-3.77,12.57-6.28,13.83-10.05,0-2.5,0-8.82-1.27-18.87l-33.94-260.29c0-10.05-2.5-16.34-3.77-18.86-2.5-2.52-7.55-3.77-13.83-6.29-7.55-1.27-11.32-5.05-11.32-11.32h0ZM1983.54,396.11l15.07,108.14v12.57c-1.25,6.3-3.77,10.08-10.05,11.32-6.28,0-12.57-3.77-16.34-15.1-8.82-22.62-21.37-36.46-36.47-37.72l-3.77-31.43c15.1-7.55,22.65-22.63,25.15-49.04,1.27-11.32,5.05-17.6,12.59-17.6,6.28-2.52,10.05,0,11.3,6.29l2.53,12.55h0ZM2048.92,533.17l11.32,100.59-103.12,16.34-2.5-28.91c17.6-5.05,32.7-16.37,44.01-30.19,12.59-15.1,18.87-33.94,22.65-54.06l3.77-11.32c1.25-3.77,3.77-6.28,8.79-6.28,8.79-1.27,12.57,3.77,15.08,13.83h0ZM2261.41,222.57c16.34,0,31.44,1.26,44.01,5.03,31.44,12.57,50.31,36.47,56.59,74.19,3.77,26.41-1.25,49.04-13.83,67.9-12.57,15.1-30.17,27.66-54.06,38.97v1.26c25.15,0,44.01,3.77,57.83,10.05,16.34,8.81,27.66,26.41,31.44,49.04l6.28,54.08c0,2.5,2.53,5.02,3.77,3.77,2.5-1.27,5.05-2.53,8.82-7.55,2.5-6.3,6.28-8.82,10.05-10.08,2.5,0,5.02,1.27,10.05,3.77,2.5,2.53,3.77,5.05,3.77,8.82,1.25,6.28-1.27,13.83-5.05,23.89-5.02,7.55-8.79,15.1-13.83,21.37-12.57,13.83-27.66,22.62-49.04,26.39-21.37,2.53-37.72-2.5-52.81-12.57-8.79-7.55-13.83-16.34-17.6-27.66-3.75-8.82-6.28-18.87-7.52-32.7l-5.05-35.21c-2.5-15.07-3.77-26.41-7.55-32.68-5.02-11.32-13.83-16.34-26.39-15.1l-3.77-30.18c11.32-3.77,18.85-8.81,21.37-17.6,2.5-5.03,2.5-16.35,0-30.18l-7.55-60.35c-1.27-12.58-5.05-22.63-7.55-27.66-5.02-6.29-13.83-11.32-25.15-13.83l-3.77-30.18h2.53l43.99-5.02h0ZM1247.91,764.53l-94.3,13.83-2.52-28.91c32.7-10.05,50.3-41.49,54.07-95.57,1.26-10.05,6.29-16.34,15.1-17.6,5.03,0,7.55,1.27,10.05,5.05l3.77,12.57,13.83,110.65h0ZM238.17,538.19c7.55-1.25,12.58,3.77,15.1,15.1l13.83,110.65c0,11.32-3.77,18.87-12.57,20.12-6.29,0-10.06-1.25-12.58-5.02-2.52-1.27-5.03-6.28-6.29-12.57-11.31-28.92-25.14-50.31-42.75-65.41-16.34-12.57-33.95-18.85-54.07-16.34l-3.77-30.17c18.86,0,36.47,0,55.33,2.5l22.63,3.77c5.03,0,8.81-3.77,12.58-10.05,3.77-7.55,7.55-11.32,12.57-12.58h0ZM495.96,505.51l105.63,303.04,7.55,16.34c2.52,5.05,7.55,10.05,12.58,10.05,8.81,2.53,12.58,7.55,12.58,15.1,1.26,5.02-1.26,8.79-6.29,12.57-3.77,0-8.81,2.53-16.35,3.77l-110.66,17.6c-15.08,2.53-22.63-1.25-23.89-10.05v-10.05l6.29-6.28c6.29-3.77,8.79-8.82,10.05-11.32,1.26-3.77-1.26-11.32-3.77-20.12l-13.84-36.47-65.39,10.05,2.52-28.91,54.07-8.82-72.93-212.51,1.26-27.66,100.61-16.33ZM630.51,482.86l127-20.12c11.32-1.26,17.6,3.77,18.87,13.84,0,5.02-1.26,11.32-8.81,13.83-6.29,3.77-10.06,7.55-11.32,11.32-1.26,2.5-1.26,8.79,0,17.6l30.18,240.17c2.52,11.32,3.77,20.12,5.03,23.89,6.29,15.1,16.35,23.89,31.44,26.39l5.03,28.92-50.3,5.05c-16.34,0-32.7-3.77-47.78-10.05-18.86-7.55-32.7-16.37-41.49-26.42-5.03-8.79-8.81-20.12-12.58-33.94l-28.92-235.15c-1.26-10.05-3.77-17.6-5.03-18.85-1.26-2.53-6.29-5.05-13.83-6.3-6.29-1.25-11.32-5.02-11.32-11.3-1.26-6.3,1.26-11.32,6.29-15.1l7.54-3.79h0ZM841.76,481.61l-11.32-5.02c-3.77-1.27-3.77-6.28-5.03-10.06-1.26-10.05,5.03-15.1,21.37-17.6l50.3-8.81h13.83c7.55,0,11.32,5.03,12.58,11.32,0,3.77-1.26,7.55-5.03,11.32l-10.05,8.79c-8.81,8.82-13.83,25.15-13.83,49.04l25.14,188.62c1.26,36.47-5.03,67.91-23.89,91.8-12.58,18.87-30.18,30.17-49.04,33.94l-3.77-28.91c20.13-10.08,33.95-23.92,40.25-37.74,7.55-15.07,11.32-33.94,8.81-56.56l-23.89-186.12c-5.03-23.89-13.83-38.99-26.41-44.02h0ZM980.07,465.26c-2.52-2.52-7.55-5.03-15.1-6.29s-11.31-5.03-12.57-11.31c0-10.06,5.03-16.35,15.1-18.86l127-20.13,8.81,1.26c6.29,1.26,8.81,5.03,10.05,11.32,1.26,6.29-2.52,11.32-8.81,15.1-6.28,3.77-11.31,7.55-11.31,11.32-1.26,1.26-1.26,8.81,0,18.86l40.25,315.61-118.21,18.87h-8.81c-6.29-2.5-8.81-6.28-10.06-12.57-1.26-6.3,1.26-11.32,8.81-15.1,6.29-3.77,11.32-6.28,12.58-10.05,1.26-2.5,0-8.82-1.26-18.87l-32.7-260.28c-2.5-11.34-2.5-16.37-3.77-18.88h0ZM390.33,593.51l18.87,54.08-21.37,176.03c-1.26,16.37-1.26,26.42,2.52,32.7,3.77,5.05,8.81,8.82,17.6,12.57l10.05,3.8c2.52,2.5,3.77,6.28,5.03,10.05,1.26,6.28-1.26,11.3-6.29,12.57l-13.83,5.05-52.81,7.52c-16.35,2.53-25.15,0-26.41-11.3,0-5.05,1.26-8.82,3.77-11.32l11.32-7.55c12.58-10.05,20.12-28.92,22.63-56.59l27.66-227.61h1.25,0ZM182.85,778.35c-5.51-2.55-11.53-3.83-17.6-3.75-8.81-1.27-12.58-5.05-12.58-12.59-1.26-8.79,3.77-15.07,15.1-16.34l108.14-17.6c10.05-2.5,15.1,2.5,17.6,12.57,0,5.05-2.52,10.05-6.29,16.37-3.77,2.5-6.29,6.28-6.29,10.05v5.02l12.58,99.35c-13.83,17.6-30.18,33.94-47.79,46.54-20.12,12.57-40.23,20.12-60.35,23.89l-3.77-28.92c12.58-6.28,18.86-17.6,16.35-35.21l-11.32-89.27c-1.27-6.32-2.52-8.82-3.77-10.09ZM24.42,631.26c22.63-41.52,51.55-65.41,90.53-72.95l3.77,28.92c-13.83,7.55-18.86,23.89-16.34,49.04l31.44,237.66c3.77,25.15,11.32,38.99,26.41,42.76l5.03,28.92c-21.37,2.5-38.97,0-56.59-7.55-18.86-7.55-33.95-18.87-49.04-33.97-31.44-32.68-51.55-76.7-56.59-129.49-7.55-54.08-1.27-101.85,21.37-143.34h0Z"/>
    </g>
  </g>
</svg>