<?xml version="1.0" encoding="UTF-8"?>
<svg id="Capa_2" data-name="Capa 2" xmlns="http://www.w3.org/2000/svg" viewBox="0 0 1134.53 143.56">
  <g id="Capa_1-2" data-name="Capa 1">
    <g id="a">
      <g>
        <path d="M.35,2.95c7.3.23,11.95.35,13.95.35,2.72,0,5.78-.07,9.17-.22,3.6-.12,5.81-.17,6.65-.17,3.4-.09,6.79.34,10.06,1.26,2.62.82,4.92,2.43,6.58,4.61,1.77,2.32,2.69,5.17,2.6,8.09,0,2.63-.63,5.22-1.82,7.56-1.21,2.43-2.95,4.55-5.08,6.21-1.97,1.6-4.2,2.84-6.6,3.67-2.24.74-4.59,1.11-6.95,1.1-2.01-.02-4.02-.22-5.99-.61l-.74-2.65.39-.44c1.74.44,3.51.68,5.3.74,3.45.14,6.79-1.23,9.14-3.76,2.35-2.64,3.59-6.09,3.46-9.62.17-3.5-1.13-6.92-3.58-9.43-2.39-2.35-6-3.52-10.84-3.52-2.95.05-5.88.55-8.69,1.48-.27,2.23-.4,7.62-.39,16.16v20.12l.05,8.47c-.03,2.12.06,4.23.26,6.34.05.68.26,1.34.63,1.91.44.41.99.68,1.58.8,1.91.33,3.84.5,5.78.5l.35.26v2.17l-.35.35c-7.38-.23-11.54-.35-12.47-.35-.98,0-5.13.12-12.43.35l-.35-.35v-2.17l.35-.26c1.8-.04,3.6-.18,5.39-.43.65-.07,1.27-.3,1.81-.67.41-.51.66-1.12.74-1.76.26-1.99.37-3.99.33-6l.05-9.17v-20.12l-.09-8.47c-.03-3.3-.11-5.43-.24-6.39-.03-.68-.24-1.34-.61-1.91-.44-.41-1-.68-1.59-.78-1.91-.31-3.84-.47-5.78-.47l-.35-.3v-2.17l.35-.31Z"/>
        <path d="M59.57,64.7l-.39-.35v-2.26l.39-.35c1.37.04,2.74-.07,4.08-.33.64-.21,1.21-.6,1.63-1.13,1.12-1.76,2.09-3.61,2.89-5.54l4.56-9.91,11.82-26.76c2.23-5.24,4.45-10.49,6.65-15.73h2.82l18.55,43.62,2.48,5.82c.72,1.65,1.55,3.45,2.5,5.39.51,1.22,1.16,2.37,1.95,3.43.39.36.85.63,1.35.8,1.18.26,2.38.37,3.59.33l.35.35v2.26l-.35.35c-3.07-.26-5.84-.39-8.3-.39-4.81.14-9.62.27-14.43.39l-.35-.35v-2.26l.35-.35c2.04.04,4.07-.1,6.08-.41.73-.12,1.25-.76,1.22-1.5-.05-.87-.26-1.72-.61-2.52l-5.34-13.25h-25.16l-4.73,11.12c-.68,1.38-1.1,2.86-1.26,4.39,0,.73.48,1.38,1.17,1.61.78.35,2.75.54,5.91.56l.39.35v2.26l-.35.35c-3.74-.23-7.01-.35-9.82-.35-3.19,0-6.4.12-9.64.35ZM79.38,40.32h21.98l-10.9-26.2-11.08,26.2Z"/>
        <path d="M146.13,3.26l.35-.3c5.3.23,9.43.35,12.38.35,3.28,0,7.69-.1,13.25-.3,2.06-.06,3.55-.09,4.47-.09,7.33,0,12.3,1.33,14.91,4,2.54,2.49,3.95,5.91,3.91,9.47-.02,2.51-.68,4.98-1.91,7.17-1.36,2.44-3.3,4.5-5.65,6.02-3.15,1.92-6.65,3.19-10.3,3.76.81,1.13,2.27,3.08,4.39,5.87l6.17,8.17c2,2.69,4.14,5.54,6.43,8.54,2.29,3,3.77,4.69,4.43,5.08.53.33,1.11.58,1.71.72.76.1,1.52.15,2.28.13l.35.35v2.04l-.39.39c-1.64-.19-3.3-.28-4.95-.26-2.06,0-4.3.09-6.73.26-2-2.43-5.14-6.65-9.43-12.64-4.98-6.95-10.08-13.4-15.29-19.33l.44-1.35c1.5.09,2.68.13,3.52.13,5.01,0,8.93-1.2,11.77-3.61,2.84-2.4,4.26-5.73,4.26-9.99,0-3.82-1.27-6.71-3.82-8.67-2.55-1.96-5.99-2.94-10.34-2.95-2.92-.02-5.82.41-8.61,1.26-.43.64-.65,6.07-.65,16.29v20.12l.05,8.47c-.03,2.12.06,4.23.26,6.34.05.68.27,1.34.63,1.91.45.41,1,.68,1.59.8,1.91.33,3.84.5,5.77.5l.35.26v2.17l-.35.35c-.14,0-2.69-.09-7.65-.26-2.06-.06-3.66-.09-4.82-.09-.9,0-5.04.12-12.42.35l-.35-.35v-2.17l.35-.26c1.8-.04,3.6-.18,5.39-.43.65-.07,1.26-.3,1.8-.67.41-.5.67-1.11.74-1.76.25-1.99.36-3.99.32-6l.05-9.17v-20.12l-.09-8.47c-.02-3.3-.1-5.43-.24-6.39-.03-.68-.24-1.34-.61-1.91-.44-.41-1-.68-1.59-.78-1.91-.31-3.84-.47-5.77-.48l-.35-.3v-2.17Z"/>
        <path d="M240.9,35.06v8.82l.05,8.47c-.02,2.1.06,4.19.26,6.28.04.71.25,1.4.63,2,.45.39,1,.66,1.59.78,1.91.33,3.84.5,5.77.5l.35.26v2.17l-.35.35c-7.35-.23-11.51-.35-12.47-.35s-5.07.12-12.42.35l-.35-.35v-2.17l.35-.26c1.81-.04,3.62-.18,5.41-.43.65-.07,1.26-.32,1.78-.7.4-.5.66-1.1.74-1.74.26-1.96.36-3.93.32-5.91l.05-9.26v-20.11l-.09-8.47c-.02-3.3-.1-5.43-.24-6.39-.03-.68-.24-1.34-.61-1.91-.44-.41-1-.68-1.59-.78-1.91-.31-3.84-.47-5.77-.48l-.35-.3v-2.18l.35-.3c12.28.17,19.45.26,21.51.26,6.89,0,13.96-.09,21.2-.26l.35.3c-.49,1.6-.8,3.26-.91,4.93-.14,1.84-.3,4.44-.48,7.8l-.35.35h-2.04l-.31-.35c-.05-.2-.19-1.32-.39-3.35-.13-1.48-.36-2.94-.7-4.39-3.01-1.01-7.17-1.52-12.47-1.52-2.79.03-5.57.2-8.34.52-.32,2.26-.48,7.76-.48,16.51v7.52c3.68.06,6.19.09,7.52.09,2.12.02,4.23-.08,6.34-.28,1.08-.06,2.14-.24,3.17-.54.38-.21.67-.56.8-.98.29-1.03.47-2.08.54-3.15l.26-2.35.3-.35h2.21l.35.39-.3,9.52c0,1.1.04,2.69.13,4.78.12,2.38.17,4.21.17,5.52l-.39.35h-2.17l-.3-.35-.17-3.69c-.03-1.07-.18-2.13-.44-3.17-.12-.56-.49-1.04-1-1.3-1-.31-2.04-.5-3.08-.56-1.59-.17-4.04-.26-7.34-.26-2.92,0-5.12.04-6.6.13Z"/>
        <path d="M289.42,3.26l.35-.3c7.18.23,11.33.35,12.43.35.98,0,5.14-.12,12.47-.35l.35.3v2.17l-.35.3c-2,.06-3.54.14-4.63.26-.83.04-1.64.26-2.37.65-.62.58-.97,1.39-.98,2.24-.18,1.62-.26,3.26-.24,4.89l-.09,9.99v13.82c0,4.55.09,7.89.28,10.02.12,1.85.53,3.67,1.22,5.39.63,1.47,1.6,2.77,2.84,3.78,1.63,1.23,3.49,2.11,5.47,2.59,2.64.7,5.36,1.04,8.08,1,3.03.02,6.04-.42,8.93-1.33,2.42-.67,4.61-2,6.32-3.85,1.55-1.9,2.53-4.19,2.84-6.62.52-3.78.74-7.59.68-11.41v-13.38c0-2.26-.04-5.37-.11-9.32-.07-3.95-.25-6.23-.52-6.82-.32-.63-.86-1.11-1.52-1.35-.74-.3-2.79-.48-6.15-.54l-.35-.35v-2.04l.35-.39c4.29.23,7.72.35,10.29.35,2.2,0,5.62-.12,10.25-.35l.39.35v2.09l-.39.35c-1.78,0-3.56.1-5.32.33-.63.08-1.23.32-1.74.72-.38.41-.63.92-.73,1.48-.25,1.9-.36,3.82-.33,5.74l-.13,9.78v13.21c.06,4.17-.15,8.33-.61,12.47-.27,2.68-1.21,5.26-2.72,7.49-1.37,1.92-3.06,3.58-5,4.91-2.26,1.46-4.77,2.49-7.41,3.04-3.08.72-6.23,1.07-9.39,1.06-3.63.06-7.25-.4-10.75-1.35-2.67-.68-5.18-1.89-7.36-3.56-1.62-1.25-2.94-2.85-3.87-4.67-.83-1.83-1.35-3.78-1.52-5.78-.23-2.22-.35-5.6-.35-10.15v-16.69l-.09-8.47c-.03-3.3-.11-5.43-.24-6.39-.03-.68-.24-1.34-.61-1.91-.44-.41-.99-.68-1.58-.78-1.91-.31-3.84-.47-5.78-.48l-.35-.3v-2.18Z"/>
        <path d="M456.82,3.08l.39.35v2.13l-.35.3c-1.99-.03-3.97.13-5.93.48-.67.16-1.25.57-1.63,1.15-.41,1-.6,2.07-.55,3.15-.04,1.57-.12,5.98-.24,13.25v20.03c0,2.9.04,6.17.13,9.82.09,3.65.27,5.77.54,6.37.3.62.84,1.09,1.5,1.3,2.03.41,4.1.6,6.17.54l.35.3v2.14l-.39.35c-4.72-.26-8.84-.39-12.34-.39-2.38,0-6.42.13-12.13.39l-.39-.35v-2.09l.35-.35c1.99.03,3.97-.13,5.93-.48.67-.16,1.25-.57,1.63-1.15.41-1.01.61-2.1.57-3.19.05-1.59.13-6,.22-13.21V12.03l-14.99,31.37c-3.77,7.85-7.06,15.24-9.86,22.16h-1.7c-1.62-3.74-2.96-6.72-4-8.95l-20.76-43.15v30.37c0,2.84.04,6.11.11,9.8.07,3.69.25,5.83.54,6.41.32.61.87,1.07,1.52,1.3.73.29,2.78.46,6.17.52l.35.35v2.08l-.39.39-2.78-.13c-2.87-.15-5.33-.22-7.38-.22-.93,0-4.39.12-10.39.35l-.35-.35v-2.08l.35-.39c1.98.05,3.96-.1,5.91-.43.67-.17,1.25-.59,1.63-1.17.42-.97.61-2.03.57-3.08.04-1.51.11-5.95.2-13.34v-19.9c0-2.64-.04-5.84-.11-9.62-.07-3.78-.25-5.97-.52-6.56-.31-.62-.85-1.09-1.5-1.32-.73-.29-2.78-.46-6.17-.52l-.35-.35v-2.09l.39-.39c2,.15,4.69.22,8.08.22,3.18,0,5.96-.07,8.34-.22,2.43,5.62,4.76,10.7,6.99,15.25l16.47,33.8,14.86-30.98c4.03-8.37,6.74-14.4,8.12-18.08,2.78.15,5.52.22,8.21.22,2.43,0,5.3-.07,8.6-.21Z"/>
        <path d="M479.61,49.4l.35-.35h2.13l.35.35c0,2.28.2,4.55.59,6.8.48,1.1,1.3,2.01,2.34,2.61,1.61,1.04,3.39,1.8,5.26,2.24,2.16.58,4.39.87,6.63.87,2.85.05,5.67-.53,8.27-1.69,2.36-1.05,4.35-2.78,5.72-4.97,1.37-2.21,2.08-4.77,2.04-7.37.04-1.72-.29-3.42-.98-5-.6-1.36-1.54-2.53-2.74-3.41-1.21-.87-2.57-1.52-4.02-1.91-1.51-.42-3.75-.87-6.73-1.37-2.9-.47-5.17-.89-6.8-1.26-1.69-.39-3.33-.98-4.89-1.74-1.54-.72-2.92-1.73-4.06-2.98-1.14-1.3-2.03-2.8-2.61-4.43-.66-1.8-.99-3.71-.98-5.63-.16-5.05,1.91-9.92,5.65-13.32,3.76-3.46,8.82-5.19,15.16-5.19,2.77.03,5.53.34,8.23.93,2.81.57,5.53,1.49,8.1,2.76l.3.52c-.76,3.75-1.15,7.56-1.17,11.38l-.39.35h-2.26l-.35-.3c-.06-3.48-.15-5.66-.26-6.56-.11-.9-1.43-2.01-3.95-3.34-2.53-1.33-5.35-2.02-8.21-2-2.38-.02-4.74.49-6.91,1.48-2.11.95-3.82,2.59-4.87,4.65-1.07,1.99-1.64,4.21-1.65,6.47-.03,1.57.31,3.13,1,4.54.6,1.24,1.48,2.31,2.59,3.13,1.11.79,2.36,1.38,3.69,1.72,1.4.38,3.97.84,7.71,1.39,5.13.73,8.85,1.6,11.19,2.63,2.32,1.02,4.28,2.73,5.61,4.89,1.46,2.44,2.19,5.24,2.1,8.08.07,6.04-2.73,11.76-7.54,15.43-5.16,4.16-11.64,6.35-18.27,6.17-5.43.12-10.82-.98-15.78-3.21l-.26-.56c.29-1.83.5-6.09.65-12.78Z"/>
        <path d="M609.97,5.43v-1.83l.35-.39c4.78-.46,9.48-1.54,13.99-3.21l.83.52c-.32,3.33-.48,10.01-.48,20.03v28.46c0,2.93.05,5.48.15,7.67-.05,1.32.14,2.63.54,3.89.32.45.77.8,1.29,1,1.65.44,3.35.68,5.06.74l.39.35v1.65l-.39.39c-3.13-.2-5.56-.3-7.3-.3-1.56,0-3.79.1-6.69.3l-.48-.48c.09-2.84.13-4.82.13-5.95,0-.14.02-.7.05-1.65-1.59,1.16-3.19,2.45-4.78,3.87-2.35,2.09-3.88,3.39-4.61,3.91-1.8.76-3.74,1.1-5.69,1-3.62.11-7.19-.92-10.19-2.95-2.7-1.85-4.79-4.48-5.97-7.54-1.18-3-1.78-6.19-1.78-9.41,0-3.24.62-6.45,1.85-9.45.99-2.72,2.83-5.05,5.26-6.63,2.27-1.39,4.75-2.83,7.43-4.32,2.42-1.42,5.17-2.19,7.97-2.24,3.68,0,7.3.94,10.51,2.74l-.17-9.69c-.06-3.36-.15-5.7-.26-7.02,0-.8-.15-1.6-.44-2.35-.22-.28-.54-.47-.88-.54-1.75-.18-3.52-.24-5.28-.17l-.39-.39ZM617.4,33.02c-1.67-1.93-3.7-3.51-5.97-4.65-2.04-1.04-4.3-1.59-6.58-1.61-2.41,0-4.77.68-6.8,1.98-2.14,1.37-3.75,3.44-4.54,5.86-.95,2.72-1.42,5.58-1.39,8.45,0,5.07,1.28,9.14,3.84,12.21,2.33,2.96,5.9,4.66,9.67,4.61,1.97.04,3.92-.47,5.63-1.46,1.64-.97,3.03-2.32,4.04-3.93,1-1.48,1.63-3.18,1.85-4.95.17-1.65.26-4.68.26-9.08v-7.43Z"/>
        <path d="M688.52,57.96l-1.39,3.13c-2.46,1.69-5.19,2.97-8.06,3.78-2.07.54-4.19.83-6.32.87-3.4.01-6.77-.68-9.89-2.04-3.2-1.44-5.86-3.86-7.6-6.91-2.04-3.57-3.06-7.62-2.94-11.73-.04-2.79.35-5.56,1.13-8.23.52-1.92,1.31-3.76,2.36-5.45,1.18-1.53,2.6-2.86,4.2-3.95,1.92-1.43,4.02-2.6,6.25-3.48,2.27-.88,4.69-1.32,7.13-1.3,3.23-.07,6.42.79,9.19,2.45,2.48,1.45,4.44,3.64,5.59,6.28,1.07,2.57,1.62,5.34,1.61,8.12,0,.87-.04,1.74-.13,2.61l-.48.48c-2.62.51-5.28.8-7.95.87-3.33.15-5.53.22-6.6.22h-13.95c.06,6,1.57,10.41,4.52,13.25,2.9,2.82,6.82,4.35,10.86,4.26,1.99,0,3.97-.35,5.84-1.04,2.06-.79,4.05-1.76,5.93-2.91l.69.74ZM660.67,40.19c.52.09,2.53.19,6.02.3,3.49.11,6.08.17,7.76.17,2.45.06,4.9-.01,7.34-.22.03-.7.04-1.23.04-1.61,0-4.49-.91-7.83-2.74-10.01-1.84-2.2-4.61-3.41-7.47-3.28-3.13-.15-6.13,1.23-8.06,3.69-1.93,2.47-2.89,6.12-2.89,10.95Z"/>
        <path d="M832.3,3.08l.39.35v2.13l-.35.3c-1.99-.03-3.97.13-5.93.48-.67.16-1.25.57-1.63,1.15-.41,1-.6,2.07-.55,3.15-.04,1.56-.12,5.98-.24,13.25v20.03c0,2.9.04,6.17.13,9.82s.27,5.77.54,6.37c.3.62.84,1.09,1.5,1.3,2.03.41,4.1.6,6.17.54l.35.3v2.14l-.39.35c-4.72-.26-8.84-.39-12.34-.39-2.38,0-6.42.13-12.13.39l-.39-.35v-2.09l.35-.35c1.99.03,3.97-.13,5.93-.48.67-.16,1.25-.57,1.63-1.15.42-1.01.61-2.1.57-3.19.05-1.59.13-6,.22-13.21V12.03l-14.99,31.37c-3.77,7.85-7.06,15.24-9.86,22.16h-1.7c-1.62-3.74-2.96-6.72-4-8.95l-20.77-43.15v30.37c0,2.84.04,6.11.11,9.8s.25,5.83.54,6.41c.32.61.87,1.07,1.52,1.3.72.29,2.78.46,6.17.52l.35.35v2.08l-.39.39-2.78-.13c-2.87-.15-5.33-.22-7.38-.22-.93,0-4.39.12-10.39.35l-.35-.35v-2.08l.35-.39c1.98.05,3.96-.1,5.91-.43.67-.17,1.25-.59,1.63-1.17.42-.97.61-2.03.57-3.08.04-1.51.11-5.95.2-13.34v-19.9c0-2.64-.04-5.84-.11-9.62-.07-3.78-.25-5.97-.52-6.56-.31-.62-.85-1.09-1.5-1.32-.73-.29-2.78-.46-6.17-.52l-.35-.35v-2.09l.39-.39c2,.15,4.69.22,8.08.22,3.18,0,5.96-.07,8.34-.22,2.43,5.62,4.76,10.7,6.99,15.25l16.47,33.8,14.86-30.98c4.03-8.37,6.74-14.4,8.12-18.08,2.78.15,5.52.22,8.21.22,2.44,0,5.31-.07,8.61-.21Z"/>
        <path d="M854.22,64.7l-.39-.35v-2.26l.39-.35c1.37.04,2.74-.07,4.08-.33.64-.21,1.21-.6,1.63-1.13,1.12-1.76,2.09-3.61,2.89-5.54l4.56-9.91,11.82-26.76c2.23-5.24,4.45-10.49,6.65-15.73h2.82l18.55,43.62,2.48,5.82c.72,1.65,1.55,3.45,2.5,5.39.51,1.22,1.16,2.37,1.95,3.43.39.36.85.63,1.35.8,1.18.26,2.38.37,3.59.33l.35.35v2.26l-.35.35c-3.07-.26-5.84-.39-8.3-.39-4.81.14-9.61.27-14.43.39l-.35-.35v-2.26l.35-.35c2.04.04,4.07-.1,6.08-.41.73-.12,1.25-.76,1.22-1.5-.05-.87-.26-1.72-.6-2.52l-5.35-13.25h-25.16l-4.73,11.12c-.68,1.38-1.1,2.86-1.26,4.39,0,.73.48,1.38,1.17,1.61.79.35,2.75.54,5.91.56l.39.35v2.26l-.35.35c-3.74-.23-7.01-.35-9.82-.35-3.19,0-6.4.12-9.64.35ZM874.03,40.32h21.98l-10.9-26.2-11.08,26.2Z"/>
        <path d="M940.78,3.26l.35-.3c5.3.23,9.43.35,12.38.35,3.27,0,7.69-.1,13.25-.3,2.06-.06,3.55-.09,4.47-.09,7.33,0,12.3,1.33,14.9,4,2.54,2.49,3.95,5.91,3.91,9.47-.02,2.51-.68,4.98-1.91,7.17-1.36,2.44-3.3,4.51-5.65,6.02-3.15,1.92-6.65,3.19-10.29,3.76.81,1.13,2.27,3.08,4.38,5.87l6.17,8.17c2,2.69,4.14,5.54,6.43,8.54,2.29,3,3.77,4.69,4.43,5.08.53.33,1.11.58,1.72.72.76.1,1.52.15,2.28.13l.35.35v2.04l-.39.39c-1.65-.19-3.3-.28-4.96-.26-2.06,0-4.3.09-6.73.26-2-2.43-5.14-6.65-9.43-12.64-4.98-6.95-10.08-13.4-15.29-19.33l.44-1.35c1.5.09,2.68.13,3.52.13,5.01,0,8.94-1.2,11.78-3.61,2.84-2.4,4.26-5.73,4.26-9.99,0-3.82-1.27-6.71-3.82-8.67-2.55-1.96-6-2.93-10.34-2.93-2.92-.02-5.82.41-8.61,1.26-.43.64-.65,6.07-.65,16.29v20.1l.04,8.47c-.03,2.12.06,4.23.26,6.34.04.68.26,1.34.63,1.91.44.41.99.68,1.58.8,1.91.33,3.84.5,5.78.5l.35.26v2.17l-.35.35c-.14,0-2.69-.09-7.65-.26-2.06-.06-3.66-.09-4.82-.09-.9,0-5.04.12-12.43.35l-.35-.35v-2.17l.35-.26c1.8-.04,3.6-.18,5.39-.43.65-.07,1.26-.3,1.8-.67.41-.5.67-1.11.74-1.76.26-1.99.37-3.99.33-6l.04-9.17v-20.12l-.09-8.47c-.03-3.3-.11-5.43-.24-6.39-.03-.68-.24-1.34-.61-1.91-.44-.41-.99-.68-1.58-.78-1.91-.31-3.84-.47-5.78-.48l-.35-.3v-2.17Z"/>
        <path d="M1016.08,3.26l.35-.3c7.19.23,11.33.35,12.43.35.99,0,5.15-.12,12.47-.35l.35.3v2.17l-.35.3c-2,.06-3.54.15-4.63.26-.83.04-1.64.26-2.37.65-.62.58-.97,1.39-.98,2.24-.18,1.62-.26,3.26-.24,4.89l-.09,9.99v19.2c0,4.81.03,8.17.09,10.08l.22,7.52h8.86c7.07,0,11.48-.09,13.23-.26,1.74-.17,3.44-.59,5.06-1.26.58-1.63,1.04-3.3,1.37-5,.6-2.61.91-4.11.93-4.52l.39-.35h2.13l.3.35c-.35,2.23-.59,4.48-.72,6.73-.25,3.33-.37,6.03-.37,8.08l-.35.35c-5.5-.17-12.73-.26-21.68-.26l-12.69-.09c-2.89,0-5.85.12-8.86.35l-.35-.35v-1.42l.35-.43c1.04-.47,2.02-1.04,2.95-1.69.17-.2.35-2.07.54-5.6s.28-7.79.28-12.77v-18.64l-.08-8.47c-.03-3.3-.11-5.43-.24-6.39-.04-.68-.25-1.34-.61-1.91-.44-.41-.99-.68-1.58-.78-1.91-.31-3.84-.47-5.78-.48l-.35-.3v-2.18Z"/>
        <path d="M1077.49,7.04l-.39-.39v-1.83l.39-.39,12.3-2.04c.93.67,1.79,1.44,2.54,2.3,1.33,1.64,2.53,3.38,3.6,5.19,1.58,2.53,3.61,6.07,6.1,10.6,2.49,4.53,4.88,9.08,7.17,13.62l4.43-7.04,5-8.34,9.21-15.77c1.1.11,2.2.17,3.3.17.67,0,1.68-.06,3.04-.17l.35.35v.82c-1.45,1.59-3.69,4.48-6.73,8.67-3.04,4.18-5.31,7.46-6.8,9.82-1.49,2.36-3.33,5.33-5.5,8.91-1.36,2.05-2.55,4.21-3.57,6.45-.22.84-.32,1.7-.3,2.56v6.39l.04,6.52c-.02,1.76.07,3.53.28,5.28.05.7.27,1.37.65,1.95.44.39.98.66,1.56.76,1.9.31,3.83.47,5.75.48l.35.26v2.17l-.35.35c-.14,0-2.69-.09-7.65-.26-2.06-.06-3.66-.09-4.82-.09-.93,0-5.07.12-12.43.35l-.35-.35v-2.17l.35-.26c1.82-.03,3.63-.18,5.43-.44.63-.08,1.24-.31,1.76-.67.39-.46.64-1.01.72-1.61.23-1.62.33-3.25.3-4.89l.09-7.43v-8.25c-1.92-3.87-4.05-7.62-6.39-11.25l-3.82-6.21c-1.22-1.97-2.74-4.26-4.58-6.89-1.26-1.91-2.69-3.7-4.28-5.34-.66-.7-1.46-1.27-2.34-1.65-1.46-.22-2.94-.3-4.42-.24Z"/>
        <g>
          <path d="M449.42,96.06c5.5.17,9.01.26,10.52.26,2.05,0,4.36-.05,6.91-.16,2.71-.09,4.38-.13,5.01-.13,2.56-.07,5.12.26,7.58.95,1.97.62,3.71,1.83,4.96,3.47,1.33,1.75,2.03,3.9,1.97,6.1,0,1.98-.47,3.93-1.37,5.7-.91,1.83-2.22,3.43-3.83,4.68-2.88,2.37-6.5,3.64-10.22,3.6-1.52-.02-3.03-.17-4.52-.46l-.55-2,.29-.33c1.31.33,2.65.52,4,.56,2.6.11,5.12-.93,6.9-2.83,1.77-1.99,2.7-4.59,2.6-7.26.13-2.64-.85-5.22-2.7-7.11-1.8-1.77-4.52-2.65-8.17-2.65-2.23.04-4.44.42-6.55,1.11-.19,1.68-.29,5.74-.29,12.18v15.17l.03,6.39c-.02,1.6.05,3.19.2,4.78.03.51.2,1.01.47,1.44.33.31.75.52,1.19.61,1.44.25,2.9.37,4.36.38l.26.2v1.64l-.26.26c-5.57-.17-8.7-.26-9.4-.26-.75,0-3.87.09-9.37.26l-.26-.26v-1.64l.26-.2c1.36-.03,2.72-.14,4.06-.33.49-.05.95-.23,1.36-.51.31-.38.5-.84.56-1.33.2-1.5.28-3.01.25-4.52l.03-6.91v-15.16l-.06-6.39c-.02-2.49-.08-4.09-.18-4.82-.03-.51-.19-1.01-.46-1.44-.33-.31-.75-.51-1.19-.59-1.44-.23-2.9-.35-4.36-.36l-.26-.23v-1.64l.25-.23Z"/>
          <path d="M494.07,142.6l-.3-.26v-1.7l.3-.26c1.03.03,2.07-.05,3.08-.24.48-.16.91-.46,1.23-.85.85-1.33,1.57-2.72,2.18-4.18l3.44-7.47,8.91-20.18c1.68-3.95,3.36-7.91,5.01-11.86h2.13l13.99,32.89,1.87,4.39c.55,1.24,1.17,2.6,1.88,4.06.39.92.88,1.79,1.47,2.59.29.27.64.48,1.02.61.89.19,1.79.28,2.7.24l.26.26v1.7l-.26.26c-2.31-.2-4.4-.29-6.26-.29-3.63.11-7.25.21-10.88.29l-.26-.26v-1.7l.26-.26c1.53.03,3.07-.07,4.59-.31.55-.09.94-.58.92-1.13-.04-.66-.2-1.3-.46-1.9l-4.03-9.99h-18.96l-3.57,8.38c-.51,1.04-.83,2.16-.95,3.31,0,.55.36,1.04.88,1.21,1.46.36,2.96.51,4.46.43l.3.26v1.7l-.26.26c-2.81-.17-5.28-.26-7.4-.26-2.41,0-4.83.09-7.28.26ZM509,124.23h16.58l-8.22-19.75-8.35,19.75Z"/>
          <path d="M559.32,96.29l.26-.23c4,.17,7.11.26,9.34.26,2.47,0,5.8-.08,9.99-.23,1.55-.04,2.67-.07,3.37-.07,5.53,0,9.27,1,11.23,3.01,1.91,1.88,2.98,4.46,2.95,7.14-.02,1.89-.51,3.75-1.44,5.4-1.03,1.84-2.49,3.4-4.26,4.54-2.38,1.44-5.01,2.41-7.76,2.83.61.85,1.71,2.33,3.31,4.42l4.65,6.16c1.5,2.03,3.12,4.18,4.85,6.44.95,1.41,2.07,2.7,3.34,3.83.4.25.84.43,1.3.54.57.08,1.14.11,1.72.1l.26.26v1.54l-.29.3c-1.24-.14-2.49-.21-3.74-.2-1.55,0-3.24.07-5.08.2-1.51-1.83-3.88-5.01-7.11-9.53-3.75-5.24-7.6-10.1-11.53-14.58l.33-1.01c1.13.07,2.02.1,2.65.1,3.78,0,6.74-.91,8.88-2.72,2.17-1.88,3.35-4.66,3.21-7.54.16-2.52-.91-4.96-2.88-6.53-2.28-1.58-5.02-2.36-7.79-2.21-2.2-.01-4.39.31-6.49.95-.33.48-.49,4.57-.49,12.28v15.16l.03,6.39c-.02,1.6.04,3.19.19,4.78.03.51.2,1.01.48,1.44.33.31.75.52,1.19.61,1.44.25,2.9.37,4.36.38l.26.2v1.64l-.26.26c-.11,0-2.03-.07-5.77-.2-1.55-.04-2.76-.07-3.64-.07-.68,0-3.8.09-9.37.26l-.26-.26v-1.64l.26-.2c1.36-.03,2.72-.14,4.06-.33.49-.05.95-.23,1.36-.51.31-.38.5-.84.56-1.33.2-1.5.28-3.01.25-4.52l.03-6.91v-15.16l-.07-6.39c-.02-2.49-.08-4.09-.18-4.82-.03-.51-.18-1.01-.46-1.44-.33-.31-.75-.51-1.19-.59-1.44-.23-2.9-.35-4.36-.36l-.26-.23v-1.64Z"/>
          <path d="M618.35,96.06l4.1.13c2.69.09,4.45.13,5.27.13.74,0,3.87-.09,9.4-.26l.26.23v1.64l-.26.23c-1.5.04-2.67.11-3.49.19-.62.03-1.23.2-1.79.49-.47.44-.73,1.05-.73,1.69-.14,1.22-.2,2.45-.18,3.69l-.06,7.53v15.17l.03,6.39c-.02,1.6.04,3.19.19,4.78.04.51.2,1.01.48,1.44.33.31.75.52,1.19.61,1.44.25,2.9.37,4.36.38l.26.2v1.64l-.26.26c-.11,0-2.03-.07-5.77-.2-1.55-.04-2.76-.07-3.64-.07-.68,0-3.8.09-9.37.26l-.26-.26v-1.64l.26-.2c1.36-.03,2.72-.14,4.06-.33.49-.06.96-.23,1.36-.51.31-.38.5-.84.56-1.33.2-1.5.28-3.01.25-4.52l.03-6.91v-15.16l-.07-6.39c-.02-2.49-.08-4.09-.18-4.82-.03-.51-.18-1.01-.46-1.44-.34-.31-.75-.51-1.2-.59-1.44-.23-2.9-.35-4.36-.36l-.26-.23v-1.64l.26-.23Z"/>
          <path d="M654.32,131.07l.26-.26h1.61l.26.26c0,1.72.15,3.43.44,5.13.36.83.98,1.52,1.77,1.97,1.22.78,2.56,1.35,3.96,1.69,1.63.43,3.31.65,4.99.65,2.15.04,4.28-.4,6.24-1.28,1.78-.79,3.28-2.1,4.31-3.75,1.03-1.67,1.57-3.59,1.54-5.55.03-1.29-.22-2.58-.74-3.77-.45-1.02-1.16-1.91-2.06-2.57-.92-.66-1.94-1.15-3.03-1.44-1.13-.31-2.83-.66-5.08-1.03-2.18-.35-3.89-.67-5.12-.95-1.27-.3-2.51-.74-3.69-1.31-1.16-.54-2.2-1.3-3.06-2.24-.86-.98-1.53-2.11-1.96-3.34-.5-1.36-.75-2.79-.74-4.24-.12-3.81,1.44-7.48,4.26-10.04,2.84-2.61,6.65-3.91,11.43-3.92,2.09.02,4.17.26,6.21.71,2.12.43,4.17,1.13,6.1,2.08l.23.39c-.57,2.83-.87,5.7-.89,8.58l-.29.26h-1.7l-.26-.23c-.05-2.62-.11-4.27-.2-4.95-.09-.68-1.08-1.52-2.98-2.52-1.91-1.01-4.04-1.52-6.19-1.51-1.8-.01-3.57.37-5.21,1.11-1.59.72-2.88,1.95-3.67,3.51-.81,1.5-1.24,3.18-1.25,4.88-.02,1.18.24,2.36.76,3.42.45.93,1.12,1.74,1.95,2.36.84.6,1.78,1.04,2.79,1.29,1.06.28,3,.63,5.81,1.05,2.88.3,5.72.97,8.43,1.98,1.75.77,3.23,2.05,4.23,3.68,1.1,1.84,1.65,3.95,1.59,6.09.05,4.56-2.06,8.87-5.68,11.63-3.89,3.14-8.77,4.79-13.77,4.65-4.09.09-8.16-.74-11.89-2.42l-.2-.43c.32-3.2.49-6.41.49-9.63Z"/>
        </g>
      </g>
    </g>
  </g>
</svg>